<svg width="172" height="86" viewBox="0 0 172 86" fill="none" xmlns="http://www.w3.org/2000/svg">
<rect width="172" height="86" fill="#F5F5F5"/>
<g clip-path="url(#clip0_0_1)">
<rect x="-187.843" y="-898" width="369.843" height="1291" rx="39.45" fill="white"/>
<g filter="url(#filter0_d_0_1)">
<rect x="42.939" y="9.34912" width="120.322" height="59.1749" rx="9.86249" fill="white"/>
</g>
<g filter="url(#filter1_d_0_1)">
<rect x="8.42017" y="4.41785" width="69.0374" height="69.0374" rx="24.6562" fill="url(#paint0_linear_0_1)"/>
</g>
<path d="M52.5107 46.082L53.0877 50.7568C53.2356 51.9846 51.919 52.8427 50.8686 52.2065L44.67 48.5229C43.9895 48.5229 43.3238 48.4786 42.6729 48.3898C43.7676 47.1028 44.4186 45.4754 44.4186 43.7149C44.4186 39.5135 40.7793 36.111 36.282 36.111C34.5659 36.111 32.983 36.5992 31.6664 37.4572C31.622 37.0874 31.6072 36.7175 31.6072 36.3329C31.6072 29.6017 37.4507 24.1429 44.67 24.1429C51.8894 24.1429 57.7329 29.6017 57.7329 36.3329C57.7329 40.3272 55.6766 43.8629 52.5107 46.082Z" stroke="white" stroke-width="2.21906" stroke-linecap="round" stroke-linejoin="round"/>
<path d="M44.4184 43.7149C44.4184 45.4754 43.7675 47.1028 42.6727 48.3898C41.2081 50.1651 38.8855 51.3041 36.2818 51.3041L32.4207 53.5971C31.7697 53.9966 30.9413 53.4492 31.03 52.6947L31.3999 49.7804C29.4175 48.4046 28.1453 46.2003 28.1453 43.7149C28.1453 41.1112 29.5359 38.8182 31.6662 37.4572C32.9828 36.5992 34.5657 36.111 36.2818 36.111C40.7791 36.111 44.4184 39.5135 44.4184 43.7149Z" stroke="white" stroke-width="2.21906" stroke-linecap="round" stroke-linejoin="round"/>
<path d="M93.7898 41.5511C93.7898 40.4675 94.0318 39.4997 94.5157 38.6476C95.0102 37.7849 95.6782 37.1169 96.5198 36.6435C97.3719 36.1596 98.324 35.9176 99.376 35.9176C100.607 35.9176 101.685 36.2332 102.611 36.8644C103.537 37.4956 104.184 38.3688 104.552 39.4839H102.011C101.759 38.9579 101.401 38.5634 100.938 38.3004C100.486 38.0374 99.9598 37.9059 99.3602 37.9059C98.7185 37.9059 98.1451 38.0585 97.6402 38.3635C97.1457 38.6581 96.7565 39.0789 96.4724 39.6259C96.1989 40.173 96.0622 40.8147 96.0622 41.5511C96.0622 42.277 96.1989 42.9187 96.4724 43.4763C96.7565 44.0233 97.1457 44.4494 97.6402 44.7544C98.1451 45.049 98.7185 45.1963 99.3602 45.1963C99.9598 45.1963 100.486 45.0648 100.938 44.8018C101.401 44.5283 101.759 44.1285 102.011 43.6025H104.552C104.184 44.7281 103.537 45.6066 102.611 46.2378C101.696 46.8584 100.617 47.1688 99.376 47.1688C98.324 47.1688 97.3719 46.9321 96.5198 46.4587C95.6782 45.9748 95.0102 45.3067 94.5157 44.4546C94.0318 43.6025 93.7898 42.6347 93.7898 41.5511ZM112.348 38.2057C113.011 38.2057 113.6 38.353 114.116 38.6476C114.631 38.9316 115.031 39.3577 115.315 39.9258C115.61 40.4833 115.757 41.1566 115.757 41.9456V47.0741H113.548V42.2454C113.548 41.5511 113.374 41.0198 113.027 40.6516C112.68 40.2729 112.206 40.0836 111.607 40.0836C110.997 40.0836 110.513 40.2729 110.155 40.6516C109.808 41.0198 109.634 41.5511 109.634 42.2454V47.0741H107.425V35.3969H109.634V39.4208C109.918 39.0421 110.297 38.7475 110.77 38.5371C111.244 38.3162 111.77 38.2057 112.348 38.2057ZM118.276 42.6715C118.276 41.7878 118.449 41.0041 118.797 40.3203C119.154 39.6365 119.633 39.1105 120.233 38.7423C120.843 38.3741 121.521 38.19 122.268 38.19C122.92 38.19 123.488 38.3215 123.972 38.5845C124.467 38.8475 124.861 39.1788 125.156 39.5786V38.332H127.381V47.0741H125.156V45.7959C124.872 46.2062 124.477 46.5481 123.972 46.8216C123.478 47.0846 122.905 47.2161 122.252 47.2161C121.516 47.2161 120.843 47.0268 120.233 46.648C119.633 46.2693 119.154 45.7381 118.797 45.0543C118.449 44.3599 118.276 43.5657 118.276 42.6715ZM125.156 42.703C125.156 42.1665 125.051 41.7089 124.84 41.3302C124.63 40.9409 124.346 40.6464 123.988 40.4465C123.63 40.2361 123.247 40.1309 122.836 40.1309C122.426 40.1309 122.047 40.2308 121.7 40.4307C121.353 40.6306 121.069 40.9252 120.848 41.3144C120.638 41.6931 120.532 42.1455 120.532 42.6715C120.532 43.1975 120.638 43.6604 120.848 44.0601C121.069 44.4494 121.353 44.7492 121.7 44.9596C122.058 45.17 122.436 45.2752 122.836 45.2752C123.247 45.2752 123.63 45.1752 123.988 44.9754C124.346 44.765 124.63 44.4704 124.84 44.0917C125.051 43.7024 125.156 43.2396 125.156 42.703ZM133.097 40.1467V44.3757C133.097 44.6703 133.165 44.8859 133.302 45.0227C133.449 45.1489 133.691 45.2121 134.028 45.2121H135.054V47.0741H133.665C131.803 47.0741 130.872 46.1694 130.872 44.3599V40.1467H129.83V38.332H130.872V36.1701H133.097V38.332H135.054V40.1467H133.097Z" fill="#10011C"/>
</g>
<defs>
<filter id="filter0_d_0_1" x="31.104" y="1.45913" width="140.047" height="78.8999" filterUnits="userSpaceOnUse" color-interpolation-filters="sRGB">
<feFlood flood-opacity="0" result="BackgroundImageFix"/>
<feColorMatrix in="SourceAlpha" type="matrix" values="0 0 0 0 0 0 0 0 0 0 0 0 0 0 0 0 0 0 127 0" result="hardAlpha"/>
<feOffset dx="-1.9725" dy="1.9725"/>
<feGaussianBlur stdDeviation="4.93125"/>
<feComposite in2="hardAlpha" operator="out"/>
<feColorMatrix type="matrix" values="0 0 0 0 0 0 0 0 0 0 0 0 0 0 0 0 0 0 0.05 0"/>
<feBlend mode="normal" in2="BackgroundImageFix" result="effect1_dropShadow_0_1"/>
<feBlend mode="normal" in="SourceGraphic" in2="effect1_dropShadow_0_1" result="shape"/>
</filter>
<filter id="filter1_d_0_1" x="0.530174" y="0.472851" width="84.8173" height="84.8174" filterUnits="userSpaceOnUse" color-interpolation-filters="sRGB">
<feFlood flood-opacity="0" result="BackgroundImageFix"/>
<feColorMatrix in="SourceAlpha" type="matrix" values="0 0 0 0 0 0 0 0 0 0 0 0 0 0 0 0 0 0 127 0" result="hardAlpha"/>
<feOffset dy="3.945"/>
<feGaussianBlur stdDeviation="3.945"/>
<feComposite in2="hardAlpha" operator="out"/>
<feColorMatrix type="matrix" values="0 0 0 0 0.466667 0 0 0 0 0.415686 0 0 0 0 0.945098 0 0 0 0.2 0"/>
<feBlend mode="normal" in2="BackgroundImageFix" result="effect1_dropShadow_0_1"/>
<feBlend mode="normal" in="SourceGraphic" in2="effect1_dropShadow_0_1" result="shape"/>
</filter>
<linearGradient id="paint0_linear_0_1" x1="77.4576" y1="33.5601" x2="33.5183" y2="76.1155" gradientUnits="userSpaceOnUse">
<stop stop-color="#776BF1"/>
<stop offset="1" stop-color="#8653EE"/>
</linearGradient>
<clipPath id="clip0_0_1">
<rect x="-187.843" y="-898" width="369.843" height="1291" rx="39.45" fill="white"/>
</clipPath>
</defs>
</svg>
