<svg width="45" height="45" viewBox="0 0 45 45" fill="none" xmlns="http://www.w3.org/2000/svg">
<rect width="45" height="45" rx="15" fill="white" fill-opacity="0.05"/>
<path d="M22.5224 12.2737C18.7987 12.2737 15.7724 15.3 15.7724 19.0237V22.275C15.7724 22.9612 15.4799 24.0075 15.1312 24.5925L13.8374 26.7412C13.0387 28.0687 13.5899 29.5425 15.0524 30.0375C19.9012 31.6575 25.1324 31.6575 29.9812 30.0375C31.3424 29.5875 31.9387 27.9787 31.1962 26.7412L29.9024 24.5925C29.5649 24.0075 29.2724 22.9612 29.2724 22.275V19.0237C29.2724 15.3112 26.2349 12.2737 22.5224 12.2737Z" stroke="white" stroke-width="1.5" stroke-miterlimit="10" stroke-linecap="round"/>
<path d="M24.6037 12.6C24.2549 12.4987 23.8949 12.42 23.5237 12.375C22.4437 12.24 21.4087 12.3187 20.4412 12.6C20.7674 11.7675 21.5774 11.1825 22.5224 11.1825C23.4674 11.1825 24.2774 11.7675 24.6037 12.6Z" stroke="white" stroke-width="1.5" stroke-miterlimit="10" stroke-linecap="round" stroke-linejoin="round"/>
<path d="M25.8975 30.4425C25.8975 32.2988 24.3787 33.8175 22.5225 33.8175C21.6 33.8175 20.745 33.435 20.1375 32.8275C19.53 32.22 19.1475 31.365 19.1475 30.4425" stroke="white" stroke-width="1.5" stroke-miterlimit="10"/>
<circle cx="27.9562" cy="16.7062" r="6.09375" fill="#F82929" stroke="white" stroke-width="0.975"/>
<path d="M26.889 18.6639C26.889 18.9055 26.9762 19.0934 27.1507 19.2277C27.3319 19.3552 27.5769 19.4189 27.8856 19.4189C28.201 19.4189 28.4593 19.3082 28.6606 19.0867C28.862 18.8653 28.9626 18.5734 28.9626 18.211C28.9626 17.4459 28.617 17.0634 27.9258 17.0634C27.7983 17.0634 27.5668 17.1003 27.2312 17.1742C26.9024 17.2413 26.6273 17.2748 26.4058 17.2748C26.1911 17.2748 25.9898 17.2345 25.8019 17.154C25.9562 16.2615 26.0334 15.4159 26.0334 14.6173C26.0334 14.0738 26.332 13.802 26.9293 13.802C28.1909 13.802 29.1707 13.7013 29.8686 13.5C29.9491 13.7684 29.9894 14.01 29.9894 14.2248C29.9894 14.4395 29.9089 14.6073 29.7478 14.7281C29.5934 14.8422 29.3955 14.8992 29.1539 14.8992C28.919 14.8992 28.5667 14.8757 28.0969 14.8287C27.6272 14.775 27.342 14.7448 27.2413 14.7381C27.1608 15.1072 27.1205 15.6374 27.1205 16.3286C27.6037 16.2279 27.9728 16.1776 28.2278 16.1776C28.8452 16.1776 29.3451 16.3252 29.7277 16.6205C30.1102 16.9158 30.3014 17.3453 30.3014 17.909C30.3014 18.6405 30.0263 19.2344 29.476 19.6907C28.9324 20.1403 28.2748 20.3651 27.503 20.3651C26.9863 20.3651 26.54 20.2611 26.1642 20.0531C25.7951 19.845 25.6106 19.533 25.6106 19.1169C25.6106 18.8485 25.7012 18.6337 25.8824 18.4727C26.0636 18.3116 26.2917 18.2311 26.5669 18.2311C26.7145 18.2311 26.8454 18.2479 26.9595 18.2814C26.9125 18.4156 26.889 18.5432 26.889 18.6639Z" fill="white"/>
</svg>
