<svg width="400" height="201" viewBox="0 0 400 201" fill="none" xmlns="http://www.w3.org/2000/svg">
<path d="M399.615 21.5697C398.919 3.21647 381.913 0.108254 373.498 0.848305H200.251H20.9093C3.49749 0.848305 -0.275061 12.6891 0.0151354 18.6095V175.5C0.0151354 196.814 13.9446 201.155 20.9093 200.662C72.274 198.442 194.35 201.254 214.548 200.662C239.795 199.922 329.098 199.182 364.792 200.662C393.347 201.846 399.906 190.795 399.615 185.121C399.906 138.251 400.312 39.923 399.615 21.5697Z" fill="#241066"/>
<path d="M136.063 80.9317C136.063 80.0774 136.255 79.3111 136.641 78.6326C137.026 77.9458 137.549 77.4098 138.211 77.0245C138.881 76.6392 139.622 76.4466 140.435 76.4466C141.39 76.4466 142.223 76.6769 142.935 77.1376C143.647 77.5982 144.166 78.2515 144.493 79.0975H143.123C142.88 78.5698 142.529 78.1636 142.068 77.8788C141.616 77.594 141.071 77.4517 140.435 77.4517C139.823 77.4517 139.275 77.594 138.789 77.8788C138.303 78.1636 137.922 78.5698 137.646 79.0975C137.369 79.6168 137.231 80.2282 137.231 80.9317C137.231 81.6269 137.369 82.2383 137.646 82.766C137.922 83.2853 138.303 83.6873 138.789 83.9721C139.275 84.2569 139.823 84.3993 140.435 84.3993C141.071 84.3993 141.616 84.2611 142.068 83.9847C142.529 83.6999 142.88 83.2937 143.123 82.766H144.493C144.166 83.6036 143.647 84.2527 142.935 84.7134C142.223 85.1656 141.39 85.3918 140.435 85.3918C139.622 85.3918 138.881 85.2033 138.211 84.8264C137.549 84.4411 137.026 83.9093 136.641 83.2309C136.255 82.5524 136.063 81.7861 136.063 80.9317ZM152.693 78.4316V85.3164H151.55V84.2988C151.332 84.6505 151.026 84.9269 150.633 85.128C150.247 85.3206 149.82 85.4169 149.351 85.4169C148.815 85.4169 148.334 85.308 147.906 85.0903C147.479 84.8641 147.14 84.5291 146.889 84.0852C146.646 83.6413 146.524 83.101 146.524 82.4645V78.4316H147.655V82.3137C147.655 82.9922 147.827 83.5156 148.17 83.8842C148.514 84.2443 148.983 84.4244 149.577 84.4244C150.189 84.4244 150.67 84.2359 151.022 83.859C151.374 83.4821 151.55 82.9335 151.55 82.2132V78.4316H152.693ZM156.159 79.5498C156.36 79.1561 156.645 78.8504 157.014 78.6326C157.391 78.4149 157.847 78.306 158.383 78.306V79.4869H158.082C156.8 79.4869 156.159 80.1821 156.159 81.5725V85.3164H155.016V78.4316H156.159V79.5498ZM161.239 79.5498C161.44 79.1561 161.725 78.8504 162.093 78.6326C162.47 78.4149 162.926 78.306 163.463 78.306V79.4869H163.161C161.88 79.4869 161.239 80.1821 161.239 81.5725V85.3164H160.095V78.4316H161.239V79.5498ZM171.457 81.6102C171.457 81.8279 171.444 82.0583 171.419 82.3012H165.916C165.958 82.9796 166.188 83.5114 166.607 83.8967C167.034 84.2736 167.549 84.4621 168.152 84.4621C168.647 84.4621 169.057 84.349 169.384 84.1229C169.719 83.8884 169.953 83.5785 170.087 83.1932H171.318C171.134 83.8549 170.766 84.3951 170.213 84.8139C169.66 85.2243 168.973 85.4295 168.152 85.4295C167.499 85.4295 166.913 85.2829 166.394 84.9898C165.883 84.6966 165.481 84.282 165.187 83.746C164.894 83.2016 164.748 82.5734 164.748 81.8614C164.748 81.1495 164.89 80.5255 165.175 79.9895C165.46 79.4534 165.857 79.043 166.368 78.7583C166.888 78.4651 167.482 78.3185 168.152 78.3185C168.806 78.3185 169.384 78.4609 169.886 78.7457C170.389 79.0305 170.774 79.4241 171.042 79.9267C171.318 80.4208 171.457 80.982 171.457 81.6102ZM170.276 81.3715C170.276 80.9359 170.179 80.5632 169.987 80.2533C169.794 79.935 169.53 79.6963 169.195 79.5372C168.869 79.3697 168.504 79.2859 168.102 79.2859C167.524 79.2859 167.03 79.4702 166.62 79.8387C166.218 80.2072 165.987 80.7182 165.929 81.3715H170.276ZM176.713 78.306C177.55 78.306 178.229 78.5614 178.748 79.0723C179.267 79.5749 179.527 80.3036 179.527 81.2584V85.3164H178.396V81.4217C178.396 80.7349 178.225 80.2114 177.881 79.8513C177.538 79.4828 177.069 79.2985 176.474 79.2985C175.871 79.2985 175.389 79.4869 175.029 79.8638C174.677 80.2408 174.502 80.7894 174.502 81.5097V85.3164H173.358V78.4316H174.502V79.4116C174.728 79.0598 175.033 78.7876 175.419 78.5949C175.812 78.4023 176.244 78.306 176.713 78.306ZM183.182 79.3739V83.4319C183.182 83.7669 183.253 84.0056 183.395 84.148C183.538 84.282 183.785 84.349 184.137 84.349H184.978V85.3164H183.948C183.312 85.3164 182.834 85.1698 182.516 84.8767C182.198 84.5835 182.038 84.1019 182.038 83.4319V79.3739H181.146V78.4316H182.038V76.6978H183.182V78.4316H184.978V79.3739H183.182ZM194.883 80.8061C195.201 80.8564 195.49 80.9862 195.75 81.1956C196.018 81.405 196.227 81.6646 196.378 81.9745C196.537 82.2844 196.617 82.6153 196.617 82.967C196.617 83.4109 196.504 83.813 196.277 84.1731C196.051 84.5249 195.72 84.8055 195.285 85.0149C194.858 85.2159 194.351 85.3164 193.765 85.3164H190.498V76.5596H193.639C194.234 76.5596 194.74 76.6602 195.159 76.8612C195.578 77.0538 195.892 77.3176 196.101 77.6527C196.311 77.9877 196.416 78.3646 196.416 78.7834C196.416 79.3027 196.273 79.734 195.988 80.0774C195.712 80.4125 195.344 80.6553 194.883 80.8061ZM191.641 80.3413H193.564C194.1 80.3413 194.514 80.2156 194.807 79.9644C195.101 79.7131 195.247 79.3655 195.247 78.9216C195.247 78.4777 195.101 78.1301 194.807 77.8788C194.514 77.6275 194.091 77.5019 193.539 77.5019H191.641V80.3413ZM193.664 84.3741C194.234 84.3741 194.678 84.2401 194.996 83.9721C195.314 83.7041 195.473 83.3314 195.473 82.854C195.473 82.3682 195.306 81.9871 194.971 81.7107C194.636 81.4259 194.188 81.2835 193.626 81.2835H191.641V84.3741H193.664ZM198.169 81.8489C198.169 81.1453 198.311 80.5297 198.596 80.002C198.881 79.466 199.27 79.0514 199.764 78.7583C200.267 78.4651 200.824 78.3185 201.435 78.3185C202.038 78.3185 202.562 78.4484 203.006 78.708C203.449 78.9677 203.78 79.2943 203.998 79.688V78.4316H205.154V85.3164H203.998V84.0349C203.772 84.437 203.433 84.772 202.98 85.04C202.536 85.2997 202.017 85.4295 201.423 85.4295C200.811 85.4295 200.258 85.2787 199.764 84.9772C199.27 84.6757 198.881 84.2527 198.596 83.7083C198.311 83.1639 198.169 82.5441 198.169 81.8489ZM203.998 81.8614C203.998 81.3422 203.893 80.8899 203.684 80.5046C203.475 80.1193 203.19 79.8262 202.83 79.6251C202.478 79.4157 202.088 79.3111 201.661 79.3111C201.234 79.3111 200.845 79.4116 200.493 79.6126C200.141 79.8136 199.86 80.1067 199.651 80.492C199.442 80.8773 199.337 81.3296 199.337 81.8489C199.337 82.3765 199.442 82.8372 199.651 83.2309C199.86 83.6161 200.141 83.9135 200.493 84.1229C200.845 84.3239 201.234 84.4244 201.661 84.4244C202.088 84.4244 202.478 84.3239 202.83 84.1229C203.19 83.9135 203.475 83.6161 203.684 83.2309C203.893 82.8372 203.998 82.3807 203.998 81.8614ZM208.622 76.0194V85.3164H207.479V76.0194H208.622ZM210.536 81.8489C210.536 81.1453 210.678 80.5297 210.963 80.002C211.248 79.466 211.637 79.0514 212.131 78.7583C212.634 78.4651 213.191 78.3185 213.802 78.3185C214.405 78.3185 214.929 78.4484 215.373 78.708C215.817 78.9677 216.147 79.2943 216.365 79.688V78.4316H217.521V85.3164H216.365V84.0349C216.139 84.437 215.8 84.772 215.348 85.04C214.904 85.2997 214.384 85.4295 213.79 85.4295C213.178 85.4295 212.626 85.2787 212.131 84.9772C211.637 84.6757 211.248 84.2527 210.963 83.7083C210.678 83.1639 210.536 82.5441 210.536 81.8489ZM216.365 81.8614C216.365 81.3422 216.261 80.8899 216.051 80.5046C215.842 80.1193 215.557 79.8262 215.197 79.6251C214.845 79.4157 214.456 79.3111 214.028 79.3111C213.601 79.3111 213.212 79.4116 212.86 79.6126C212.508 79.8136 212.228 80.1067 212.018 80.492C211.809 80.8773 211.704 81.3296 211.704 81.8489C211.704 82.3765 211.809 82.8372 212.018 83.2309C212.228 83.6161 212.508 83.9135 212.86 84.1229C213.212 84.3239 213.601 84.4244 214.028 84.4244C214.456 84.4244 214.845 84.3239 215.197 84.1229C215.557 83.9135 215.842 83.6161 216.051 83.2309C216.261 82.8372 216.365 82.3807 216.365 81.8614ZM223.2 78.306C224.038 78.306 224.716 78.5614 225.235 79.0723C225.755 79.5749 226.014 80.3036 226.014 81.2584V85.3164H224.884V81.4217C224.884 80.7349 224.712 80.2114 224.369 79.8513C224.025 79.4828 223.556 79.2985 222.961 79.2985C222.358 79.2985 221.877 79.4869 221.517 79.8638C221.165 80.2408 220.989 80.7894 220.989 81.5097V85.3164H219.846V78.4316H220.989V79.4116C221.215 79.0598 221.521 78.7876 221.906 78.5949C222.3 78.4023 222.731 78.306 223.2 78.306ZM227.847 81.8614C227.847 81.1495 227.99 80.5297 228.275 80.002C228.559 79.466 228.953 79.0514 229.456 78.7583C229.966 78.4651 230.549 78.3185 231.202 78.3185C232.048 78.3185 232.743 78.5237 233.287 78.9341C233.84 79.3446 234.205 79.9141 234.38 80.6428H233.149C233.032 80.224 232.802 79.8932 232.458 79.6503C232.123 79.4074 231.704 79.2859 231.202 79.2859C230.549 79.2859 230.021 79.5121 229.619 79.9644C229.217 80.4083 229.016 81.0406 229.016 81.8614C229.016 82.6906 229.217 83.3314 229.619 83.7837C230.021 84.2359 230.549 84.4621 231.202 84.4621C231.704 84.4621 232.123 84.3448 232.458 84.1103C232.793 83.8758 233.024 83.5408 233.149 83.1052H234.38C234.196 83.8088 233.828 84.3741 233.275 84.8013C232.722 85.2201 232.031 85.4295 231.202 85.4295C230.549 85.4295 229.966 85.2829 229.456 84.9898C228.953 84.6966 228.559 84.282 228.275 83.746C227.99 83.2099 227.847 82.5818 227.847 81.8614ZM242.58 81.6102C242.58 81.8279 242.568 82.0583 242.543 82.3012H237.04C237.082 82.9796 237.312 83.5114 237.731 83.8967C238.158 84.2736 238.673 84.4621 239.276 84.4621C239.77 84.4621 240.181 84.349 240.507 84.1229C240.842 83.8884 241.077 83.5785 241.211 83.1932H242.442C242.258 83.8549 241.889 84.3951 241.336 84.8139C240.784 85.2243 240.097 85.4295 239.276 85.4295C238.623 85.4295 238.036 85.2829 237.517 84.9898C237.006 84.6966 236.604 84.282 236.311 83.746C236.018 83.2016 235.871 82.5734 235.871 81.8614C235.871 81.1495 236.014 80.5255 236.299 79.9895C236.583 79.4534 236.981 79.043 237.492 78.7583C238.011 78.4651 238.606 78.3185 239.276 78.3185C239.929 78.3185 240.507 78.4609 241.01 78.7457C241.512 79.0305 241.898 79.4241 242.166 79.9267C242.442 80.4208 242.58 80.982 242.58 81.6102ZM241.399 81.3715C241.399 80.9359 241.303 80.5632 241.11 80.2533C240.918 79.935 240.654 79.6963 240.319 79.5372C239.992 79.3697 239.628 79.2859 239.226 79.2859C238.648 79.2859 238.154 79.4702 237.743 79.8387C237.341 80.2072 237.111 80.7182 237.052 81.3715H241.399Z" fill="white"/>
<path d="M128.677 119.68C128.677 120.601 128.434 121.455 127.949 122.243C127.48 123.013 126.776 123.65 125.838 124.152C124.917 124.638 123.819 124.906 122.546 124.956V126.992H120.938V124.931C119.162 124.781 117.73 124.253 116.641 123.348C115.553 122.427 114.975 121.179 114.908 119.604H119.481C119.581 120.609 120.067 121.254 120.938 121.539V117.569C119.632 117.234 118.585 116.907 117.797 116.589C117.027 116.271 116.348 115.76 115.762 115.056C115.176 114.353 114.883 113.39 114.883 112.167C114.883 110.642 115.444 109.42 116.566 108.498C117.705 107.577 119.162 107.058 120.938 106.94V104.905H122.546V106.94C124.305 107.074 125.696 107.585 126.717 108.473C127.739 109.361 128.309 110.592 128.426 112.167H123.828C123.727 111.262 123.3 110.676 122.546 110.408V114.303C123.937 114.688 125.009 115.031 125.763 115.333C126.516 115.634 127.186 116.137 127.773 116.84C128.376 117.527 128.677 118.474 128.677 119.68ZM119.431 111.966C119.431 112.385 119.556 112.736 119.807 113.021C120.075 113.306 120.452 113.557 120.938 113.775V110.282C120.469 110.366 120.101 110.55 119.833 110.835C119.565 111.103 119.431 111.48 119.431 111.966ZM122.546 121.615C123.049 121.531 123.442 121.33 123.727 121.011C124.029 120.693 124.18 120.3 124.18 119.831C124.18 119.395 124.037 119.043 123.752 118.775C123.484 118.49 123.082 118.248 122.546 118.047V121.615ZM131.387 110.458V106.463H138.347V124.806H133.874V110.458H131.387ZM141.779 121.539V118.072L149.719 106.714H154.519V117.82H156.579V121.539H154.519V124.806H150.222V121.539H141.779ZM150.523 111.438L146.302 117.82H150.523V111.438ZM159.227 111.639C159.294 109.847 159.88 108.465 160.986 107.493C162.091 106.522 163.591 106.036 165.484 106.036C166.74 106.036 167.812 106.254 168.7 106.689C169.604 107.125 170.283 107.719 170.735 108.473C171.204 109.227 171.439 110.073 171.439 111.011C171.439 112.117 171.162 113.021 170.61 113.725C170.057 114.411 169.412 114.88 168.675 115.132V115.232C169.63 115.551 170.383 116.078 170.936 116.815C171.489 117.552 171.765 118.499 171.765 119.655C171.765 120.693 171.522 121.615 171.037 122.419C170.568 123.206 169.872 123.826 168.951 124.278C168.047 124.73 166.966 124.956 165.71 124.956C163.7 124.956 162.091 124.462 160.885 123.474C159.696 122.486 159.068 120.995 159.001 119.001H163.172C163.189 119.738 163.398 120.325 163.8 120.76C164.202 121.179 164.788 121.388 165.559 121.388C166.212 121.388 166.715 121.204 167.067 120.836C167.435 120.45 167.619 119.948 167.619 119.328C167.619 118.524 167.36 117.946 166.84 117.594C166.338 117.226 165.525 117.041 164.403 117.041H163.599V113.549H164.403C165.257 113.549 165.944 113.406 166.464 113.122C167 112.82 167.268 112.292 167.268 111.539C167.268 110.936 167.1 110.467 166.765 110.131C166.43 109.796 165.969 109.629 165.383 109.629C164.747 109.629 164.269 109.822 163.951 110.207C163.649 110.592 163.473 111.07 163.423 111.639H159.227ZM179.733 120.836L176.944 128.047H174.205L175.662 120.836H179.733ZM182.39 121.539V118.072L190.33 106.714H195.129V117.82H197.19V121.539H195.129V124.806H190.832V121.539H182.39ZM191.134 111.438L186.913 117.82H191.134V111.438ZM199.536 121.363C200.106 120.911 200.365 120.702 200.315 120.735C201.957 119.378 203.246 118.264 204.184 117.393C205.139 116.522 205.943 115.609 206.597 114.654C207.25 113.7 207.577 112.77 207.577 111.865C207.577 111.178 207.417 110.642 207.099 110.257C206.781 109.872 206.304 109.679 205.667 109.679C205.03 109.679 204.528 109.922 204.159 110.408C203.808 110.877 203.632 111.547 203.632 112.418H199.486C199.519 110.994 199.821 109.805 200.39 108.85C200.977 107.895 201.739 107.192 202.677 106.739C203.632 106.287 204.687 106.061 205.843 106.061C207.836 106.061 209.336 106.572 210.341 107.594C211.362 108.615 211.873 109.947 211.873 111.589C211.873 113.381 211.262 115.048 210.039 116.589C208.816 118.114 207.258 119.604 205.365 121.062H212.15V124.554H199.536V121.363ZM213.982 110.458V106.463H220.942V124.806H216.469V110.458H213.982ZM226.711 125.007C225.957 125.007 225.338 124.789 224.852 124.353C224.383 123.901 224.148 123.348 224.148 122.695C224.148 122.025 224.383 121.464 224.852 121.011C225.338 120.559 225.957 120.333 226.711 120.333C227.448 120.333 228.051 120.559 228.52 121.011C229.006 121.464 229.249 122.025 229.249 122.695C229.249 123.348 229.006 123.901 228.52 124.353C228.051 124.789 227.448 125.007 226.711 125.007ZM231.607 121.363C232.177 120.911 232.436 120.702 232.386 120.735C234.028 119.378 235.318 118.264 236.256 117.393C237.211 116.522 238.015 115.609 238.668 114.654C239.321 113.7 239.648 112.77 239.648 111.865C239.648 111.178 239.489 110.642 239.17 110.257C238.852 109.872 238.375 109.679 237.738 109.679C237.102 109.679 236.599 109.922 236.231 110.408C235.879 110.877 235.703 111.547 235.703 112.418H231.557C231.591 110.994 231.892 109.805 232.462 108.85C233.048 107.895 233.81 107.192 234.748 106.739C235.703 106.287 236.758 106.061 237.914 106.061C239.908 106.061 241.407 106.572 242.412 107.594C243.434 108.615 243.945 109.947 243.945 111.589C243.945 113.381 243.333 115.048 242.11 116.589C240.888 118.114 239.33 119.604 237.437 121.062H244.221V124.554H231.607V121.363ZM246.505 115.383C246.505 112.502 247.058 110.232 248.164 108.574C249.286 106.915 251.087 106.086 253.566 106.086C256.045 106.086 257.838 106.915 258.943 108.574C260.066 110.232 260.627 112.502 260.627 115.383C260.627 118.298 260.066 120.584 258.943 122.243C257.838 123.901 256.045 124.73 253.566 124.73C251.087 124.73 249.286 123.901 248.164 122.243C247.058 120.584 246.505 118.298 246.505 115.383ZM256.405 115.383C256.405 113.691 256.221 112.393 255.853 111.488C255.484 110.567 254.722 110.106 253.566 110.106C252.41 110.106 251.648 110.567 251.28 111.488C250.911 112.393 250.727 113.691 250.727 115.383C250.727 116.522 250.794 117.469 250.928 118.222C251.062 118.959 251.33 119.562 251.732 120.032C252.151 120.484 252.762 120.71 253.566 120.71C254.37 120.71 254.973 120.484 255.375 120.032C255.794 119.562 256.07 118.959 256.204 118.222C256.338 117.469 256.405 116.522 256.405 115.383Z" fill="#FFCC00"/>
</svg>
