<svg width="63" height="63" viewBox="0 0 63 63" fill="none" xmlns="http://www.w3.org/2000/svg">
<rect width="63" height="63" fill="white" fill-opacity="0.05"/>
<path fill-rule="evenodd" clip-rule="evenodd" d="M8.00854 14.502V21.0991H14.5933H21.178V14.502V7.90482H14.5933H8.00854V14.502ZM23.0763 11.7086V15.5123H23.9661H24.8559V16.4633V17.4142H23.9661H23.0763V19.2567V21.0991H23.9611H24.846L24.8806 20.1779L24.9153 19.2567L25.8347 19.2219L26.7542 19.1872V20.1382V21.0891L25.8347 21.1238L24.9153 21.1585L24.8806 22.0798L24.846 23.001H25.8001H26.7542V22.05V21.0991H27.7034H28.6525V22.05V23.001H29.6017H30.5508V23.9519V24.9029H31.5H32.4491V25.8538V26.8047H30.5508H28.6525V27.7557V28.7066H27.7034H26.7542V30.5491V32.3915H27.7034H28.6525V30.5491V28.7066H29.6017H30.5508V29.6576V30.6085H31.5H32.4491V29.6576V28.7066H33.3983H34.3474V26.8047V24.9029H35.2966H36.2457V27.7557V30.6085H35.2966H34.3474V31.5V32.3915H35.2966H36.2457V31.5V30.6085H37.1355H38.0254V29.6576V28.7066H39.9237H41.822V26.8047V24.9029H40.8728H39.9237V20.2076V15.5123H39.0338H38.144V19.2567V23.001H37.1949H36.2457V20.2076V17.4142H35.2966H34.3474V15.5123V13.6105H32.4491H30.5508V12.6595V11.7086H31.5H32.4491V9.80669V7.90482H27.7627H23.0763V11.7086ZM36.2457 8.85576V9.80669H35.2966H34.3474V10.7576V11.7086H35.2966H36.2457V13.6105V15.5123H37.1355H38.0254V14.5614V13.6105H38.9745H39.9237V12.6595V11.7086H38.0847H36.2457V10.7576V9.80669H37.1355H38.0254V8.85576V7.90482H37.1355H36.2457V8.85576ZM41.822 14.502V21.0991H48.4067H54.9914V14.502V7.90482H48.4067H41.822V14.502ZM19.2797 14.502V19.1972H14.5339H9.7882V14.502V9.80669H14.5339H19.2797V14.502ZM30.5508 10.7576V11.7086H29.6017H28.6525V12.6595V13.6105H27.7034H26.7542V14.5614V15.5123H25.8051H24.8559V14.5614V13.6105H25.8051H26.7542V11.7086V9.80669H28.6525H30.5508V10.7576ZM53.2117 14.502V19.1972H48.466H43.7203V14.502V9.80669H48.466H53.2117V14.502ZM11.6865 14.502V17.2953H14.5339H17.3814V14.502V11.7086H14.5339H11.6865V14.502ZM45.6186 14.502V17.2953H48.466H51.3134V14.502V11.7086H48.466H45.6186V14.502ZM32.4491 17.3498V19.1872L33.3686 19.2219L34.2881 19.2567L34.3199 22.0798L34.3517 24.9029H33.4004H32.4491V22.05V19.1972H31.5H30.5508V20.1482V21.0991H29.6017H28.6525V20.1482V19.1972H27.6984H26.7443L26.7789 18.276L26.8136 17.3548L27.733 17.3201L28.6525 17.2854V16.3988V15.5123H30.5508H32.4491V17.3498ZM8.00854 23.9519V24.9029H8.89837H9.7882V25.8538V26.8047H10.7373H11.6865V27.7557V28.7066H9.84752H8.00854V31.5V34.2934H9.84752H11.6865V35.2443V36.1953H12.6356H13.5848V38.0971V39.999H14.5339H15.4831V39.0481V38.0971H17.3814H19.2797V39.0481V39.999H21.178H23.0763V40.95V41.9009H24.9153H26.7542V40.95V39.999H27.7034H28.6525V41.9009V43.8028H25.8644H23.0763V45.6452V47.4877H23.9661H24.8559V46.5962V45.7047H25.8051H26.7542V46.6556V47.6065H25.8051H24.8559V48.498V49.3895H26.7542H28.6525V50.3405V51.2914H30.5508H32.4491V50.3405V49.3895H33.3983H34.3474V52.2424V55.0952H36.1864H38.0254V53.1933V51.2914H37.1405H36.2557L36.221 50.3702L36.1864 49.449L35.2669 49.4143L34.3474 49.3796V48.493V47.6065H33.3983H32.4491V48.498V49.3895H30.5508H28.6525V47.5471V45.7047H30.5508H32.4491V44.7537V43.8028H31.5H30.5508V42.8518V41.9009H32.4491H34.3474V42.8568V43.8128L35.2669 43.7781L36.1864 43.7433L36.221 42.8221L36.2557 41.9009H37.1998H38.144V44.6943V47.4877H39.0338H39.9237V48.4386V49.3895H39.0338H38.144V50.3405V51.2914H39.0338H39.9237V50.3405V49.3895H40.8728H41.822V50.3405V51.2914H43.7203H45.6186V52.2424V53.1933H42.7711H39.9237V54.1442V55.0952H42.7711H45.6186V54.1442V53.1933H46.5677H47.5169V54.1442V55.0952H51.2541H54.9914V54.1442V53.1933H54.0393H53.0871L53.1198 51.3211L53.1524 49.449L54.0719 49.4143L54.9914 49.3796V48.498V47.6165L54.0719 47.5818L53.1524 47.5471L53.1178 46.6259L53.0831 45.7047H52.1983H51.3134V48.498V51.2914H48.466H45.6186V50.3405V49.3895H46.5677H47.5169V48.4386V47.4877H48.466H49.4151V46.6012V45.7146L50.3346 45.6799L51.2541 45.6452L51.2888 44.724L51.3234 43.8028H50.3693H49.4151V42.8518V41.9009H52.2033H54.9914V39.0481V36.1953H54.1016H53.2117V37.1462V38.0971H52.2626H51.3134V35.3038V32.5104H50.3643H49.4151V34.3528V36.1953H48.466H47.5169V33.4019V30.6085H42.8354H38.154L38.1193 31.5297L38.0847 32.4509L37.1652 32.4856L36.2457 32.5204V34.3578V36.1953H35.2966H34.3474V34.3528V32.5104H33.3983H32.4491V34.3528V36.1953H33.3983H34.3474V38.0971V39.999H32.4491H30.5508V39.0481V38.0971H28.6525H26.7542V39.0481V39.999H25.8051H24.8559V39.0481V38.0971H23.9068H22.9576V37.1462V36.1953H22.0728H21.1879L21.1533 35.274L21.1187 34.3528L19.25 34.3201L17.3814 34.2873V33.3395V32.3915H20.1695H22.9576V31.5V30.6085H23.9068H24.8559V28.7066V26.8047H25.8051H26.7542V25.8538V24.9029H24.9202H23.0862L23.0516 25.8241L23.017 26.7453L21.1483 26.778L19.2797 26.8108V25.8568V24.9029H20.2288H21.178V23.9519V23.001H18.3305H15.4831V23.9519V24.9029H14.5339H13.5848V25.8538V26.8047H12.6356H11.6865V24.9029V23.001H9.84752H8.00854V23.9519ZM43.7203 24.9029V26.8047H44.6694H45.6186V27.7557V28.7066H47.5169H49.4151V29.6625V30.6185L50.3346 30.5838L51.2541 30.5491L51.2888 29.6278L51.3234 28.7066H50.3693H49.4151V26.8047V24.9029H51.3134H53.2117V25.8538V26.8047H54.1016H54.9914V24.9029V23.001H51.2541H47.5169V23.9519V24.9029H46.5677H45.6186V23.9519V23.001H44.6694H43.7203V24.9029ZM17.3814 25.8538V26.8047H18.3305H19.2797V27.7557V28.7066H20.2338H21.1879L21.1533 29.6278L21.1187 30.5491L20.1992 30.5838L19.2797 30.6185V29.6625V28.7066H18.3305H17.3814V29.6576V30.6085H15.4831H13.5848V29.6576V28.7066H15.4831H17.3814V27.7557V26.8047H16.4322H15.4831V25.8538V24.9029H16.4322H17.3814V25.8538ZM39.9237 25.8588V26.8147L39.0042 26.78L38.0847 26.7453L38.05 25.8241L38.0154 24.9029H38.9695H39.9237V25.8588ZM11.6865 31.5V32.3915H12.6356H13.5848V33.3424V34.2934H15.4831H17.3814V35.2443V36.1953H15.4831H13.5848V35.2443V34.2934H12.6356H11.6865V33.4069V32.5204L10.767 32.4856L9.84752 32.4509L9.81288 31.5297L9.77823 30.6085H10.7324H11.6865V31.5ZM41.822 33.3424V34.2934H42.7661H43.7103L43.7449 33.3722L43.7796 32.4509L44.6991 32.4162L45.6186 32.3815V33.3375V34.2934H44.6694H43.7203V35.2443V36.1953H45.6186H47.5169V37.1462V38.0971H45.6186H43.7203V37.1462V36.1953H42.7711H41.822V37.1462V38.0971H40.8728H39.9237V37.1462V36.1953H39.0338H38.144V38.0971V39.999H37.1949H36.2457V40.95V41.9009H35.2966H34.3474V40.95V39.999H35.2966H36.2457V38.0971V36.1953H37.1306H38.0154L38.05 35.274L38.0847 34.3528L39.0042 34.3181L39.9237 34.2834V33.4167C39.9237 32.94 39.9593 32.5143 40.0028 32.4708C40.0462 32.4272 40.4733 32.3915 40.9519 32.3915H41.822V33.3424ZM23.0763 34.3528V36.1953H24.9153H26.7542V34.3528V32.5104H24.9153H23.0763V34.3528ZM53.2117 33.4019V34.2934H54.1016H54.9914V33.4019V32.5104H54.1016H53.2117V33.4019ZM28.6525 35.2443V36.1953H29.6017H30.5508V35.2443V34.2934H29.6017H28.6525V35.2443ZM21.178 37.1462V38.0971H20.2288H19.2797V37.1462V36.1953H20.2288H21.178V37.1462ZM8.00854 39.0481V39.999H9.84752H11.6865V39.0481V38.0971H9.84752H8.00854V39.0481ZM45.6186 42.854V45.7089L42.8008 45.6771L39.983 45.6452L39.9512 42.8221L39.9194 39.999H42.769H45.6186V42.854ZM49.4151 40.95V41.9009H48.466H47.5169V40.95V39.999H48.466H49.4151V40.95ZM8.00854 48.498V55.0952H14.5933H21.178V48.498V41.9009H14.5933H8.00854V48.498ZM41.822 42.8518V43.8028H42.7711H43.7203V42.8518V41.9009H42.7711H41.822V42.8518ZM19.2797 48.498V53.1933H14.5339H9.7882V48.498V43.8028H14.5339H19.2797V48.498ZM49.4151 44.7537V45.7047H48.466H47.5169V44.7537V43.8028H48.466H49.4151V44.7537ZM53.2117 44.7537V45.7047H54.1016H54.9914V44.7537V43.8028H54.1016H53.2117V44.7537ZM11.6865 48.498V51.2914H14.5339H17.3814V48.498V45.7047H14.5339H11.6865V48.498ZM34.3474 46.5962V47.4877H35.2966H36.2457V46.5962V45.7047H35.2966H34.3474V46.5962ZM45.6186 48.4386V49.3895H44.6694H43.7203V48.5179C43.7203 48.0384 43.7559 47.6105 43.7994 47.567C43.8428 47.5233 44.2699 47.4877 44.7485 47.4877H45.6186V48.4386ZM36.2457 48.498V49.3895H37.1355H38.0254V48.498V47.6065H37.1355H36.2457V48.498ZM23.0763 53.1933V55.0952H24.9153H26.7542V54.1442V53.1933H25.8051H24.8559V52.2424V51.2914H23.9661H23.0763V53.1933ZM28.6525 54.1442V55.0952H29.6017H30.5508V54.1442V53.1933H29.6017H28.6525V54.1442Z" fill="white"/>
</svg>
