<svg width="43" height="42" viewBox="0 0 43 42" fill="none" xmlns="http://www.w3.org/2000/svg">
<rect width="43" height="42" fill="#F5F5F5"/>
<g clip-path="url(#clip0_0_1)">
<rect x="-193.965" y="-446" width="375" height="848" rx="40" fill="white"/>
<rect x="-13.9651" y="-12.5" width="70" height="87" rx="18" fill="white"/>
<rect x="-13.4651" y="-12" width="69" height="86" rx="17.5" stroke="#3D3989" stroke-opacity="0.1"/>
<rect opacity="0.1" x="0.0349121" width="42" height="42" rx="21" fill="#FF9E00"/>
<path d="M18.3952 9H17.0321V12.4886H18.3952V9Z" fill="#FD4B2D"/>
<path d="M24.0747 16.4759H17.7136V18.9734H24.0747V16.4759Z" fill="#063E8B"/>
<path d="M24.0747 16.4759H20.8942V18.9734H24.0747V16.4759Z" fill="#032E68"/>
<path d="M22.7117 17.4857H19.0768C17.5711 17.4857 16.3506 16.2652 16.3506 14.7595V12.0334C18.0538 12.0334 19.6442 12.8846 20.589 14.3017L20.8942 14.7595L21.1995 14.3017C22.1442 12.8846 23.7347 12.0334 25.4378 12.0334V14.7595C25.4378 16.2652 24.2173 17.4857 22.7117 17.4857Z" fill="#FF6849"/>
<path d="M24.0747 18.8488H17.7136L10.0349 30.6168V30.6622C17.1172 32.7958 24.6711 32.7958 31.7535 30.6622V30.6168L24.0747 18.8488Z" fill="#FF6849"/>
<path d="M24.7563 9H23.3932V12.4886H24.7563V9Z" fill="#E8130F"/>
<path d="M20.8942 17.4868H22.7116C24.2172 17.4868 25.4378 16.2663 25.4378 14.7606V12.0345C23.7346 12.0345 22.1442 12.8857 21.1994 14.3028L20.8942 14.7606V17.4868Z" fill="#FD4B2D"/>
<path d="M24.0747 18.849H20.8942V32.2626C24.5532 32.2626 28.2123 31.7292 31.7534 30.6624V30.617L24.0747 18.849Z" fill="#FD4B2D"/>
</g>
<defs>
<clipPath id="clip0_0_1">
<rect x="-193.965" y="-446" width="375" height="848" rx="40" fill="white"/>
</clipPath>
</defs>
</svg>
