<svg width="57" height="56" viewBox="0 0 57 56" fill="none" xmlns="http://www.w3.org/2000/svg">
<g filter="url(#filter0_d_1294_2409)">
<rect x="12.1074" y="8" width="36" height="36" rx="10" fill="white" fill-opacity="0.5" shape-rendering="crispEdges"/>
</g>
<path d="M29.8574 35.3C29.5474 35.3 29.2474 35.26 28.9974 35.17C25.1774 33.86 19.1074 29.21 19.1074 22.34C19.1074 18.84 21.9374 16 25.4174 16C27.1074 16 28.6874 16.66 29.8574 17.84C31.0274 16.66 32.6074 16 34.2974 16C37.7774 16 40.6074 18.85 40.6074 22.34C40.6074 29.22 34.5374 33.86 30.7174 35.17C30.4674 35.26 30.1674 35.3 29.8574 35.3Z" fill="white"/>
<defs>
<filter id="filter0_d_1294_2409" x="0.107422" y="0" width="56" height="56" filterUnits="userSpaceOnUse" color-interpolation-filters="sRGB">
<feFlood flood-opacity="0" result="BackgroundImageFix"/>
<feColorMatrix in="SourceAlpha" type="matrix" values="0 0 0 0 0 0 0 0 0 0 0 0 0 0 0 0 0 0 127 0" result="hardAlpha"/>
<feOffset dx="-2" dy="2"/>
<feGaussianBlur stdDeviation="5"/>
<feComposite in2="hardAlpha" operator="out"/>
<feColorMatrix type="matrix" values="0 0 0 0 0 0 0 0 0 0 0 0 0 0 0 0 0 0 0.05 0"/>
<feBlend mode="normal" in2="BackgroundImageFix" result="effect1_dropShadow_1294_2409"/>
<feBlend mode="normal" in="SourceGraphic" in2="effect1_dropShadow_1294_2409" result="shape"/>
</filter>
</defs>
</svg>
