<svg width="48" height="48" viewBox="0 0 48 48" fill="none" xmlns="http://www.w3.org/2000/svg">
<g filter="url(#filter0_d_1137_703)">
<mask id="path-1-inside-1_1137_703" fill="white">
<path d="M26.6797 12.1719H25.013C20.8464 12.1719 19.1797 13.8385 19.1797 18.0052V23.0052C19.1797 27.1719 20.8464 28.8385 25.013 28.8385H30.013C34.1797 28.8385 35.8464 27.1719 35.8464 23.0052V21.3385"/>
</mask>
<path d="M26.6797 11.1719H25.013V13.1719H26.6797V11.1719ZM25.013 11.1719C22.8311 11.1719 21.0435 11.6021 19.8267 12.8189C18.61 14.0357 18.1797 15.8232 18.1797 18.0052H20.1797C20.1797 16.0205 20.5828 14.8914 21.241 14.2331C21.8992 13.5749 23.0283 13.1719 25.013 13.1719V11.1719ZM18.1797 18.0052V23.0052H20.1797V18.0052H18.1797ZM18.1797 23.0052C18.1797 25.1872 18.61 26.9747 19.8267 28.1915C21.0435 29.4083 22.8311 29.8385 25.013 29.8385V27.8385C23.0283 27.8385 21.8992 27.4355 21.241 26.7773C20.5828 26.1191 20.1797 24.9899 20.1797 23.0052H18.1797ZM25.013 29.8385H30.013V27.8385H25.013V29.8385ZM30.013 29.8385C32.195 29.8385 33.9825 29.4083 35.1993 28.1915C36.4161 26.9747 36.8464 25.1872 36.8464 23.0052H34.8464C34.8464 24.9899 34.4433 26.1191 33.7851 26.7773C33.1269 27.4355 31.9977 27.8385 30.013 27.8385V29.8385ZM36.8464 23.0052V21.3385H34.8464V23.0052H36.8464Z" fill="#FFC700" mask="url(#path-1-inside-1_1137_703)"/>
</g>
<g filter="url(#filter1_d_1137_703)">
<path d="M24.2578 20.7592L24.258 20.7576C24.2731 20.6496 24.325 20.4907 24.4096 20.3224C24.4941 20.1543 24.5905 20.018 24.6664 19.9421L31.2331 13.3754C31.7711 12.8374 32.2802 12.5192 32.7867 12.4695C33.2669 12.4223 33.8736 12.6064 34.6426 13.3754C35.4117 14.1445 35.5957 14.7511 35.5486 15.2314C35.4988 15.7378 35.1807 16.2469 34.6426 16.785L28.0792 23.3484C27.9965 23.4276 27.8564 23.5245 27.6893 23.6085C27.5194 23.6938 27.3624 23.7454 27.2588 23.7602L24.753 24.1182C24.7526 24.1183 24.7522 24.1183 24.7518 24.1184C24.4297 24.1624 24.2059 24.0688 24.075 23.9384C23.945 23.8089 23.8523 23.589 23.8992 23.2695L23.8995 23.2676L24.2578 20.7592Z" stroke="#FFC700" shape-rendering="crispEdges"/>
</g>
<g filter="url(#filter2_d_1137_703)">
<path d="M29.938 13.9635C30.4963 15.9552 32.0547 17.5135 34.0547 18.0802L29.938 13.9635Z" fill="#FFC700"/>
</g>
<defs>
<filter id="filter0_d_1137_703" x="0.179688" y="1.17188" width="46.6667" height="46.6667" filterUnits="userSpaceOnUse" color-interpolation-filters="sRGB">
<feFlood flood-opacity="0" result="BackgroundImageFix"/>
<feColorMatrix in="SourceAlpha" type="matrix" values="0 0 0 0 0 0 0 0 0 0 0 0 0 0 0 0 0 0 127 0" result="hardAlpha"/>
<feOffset dx="-4" dy="4"/>
<feGaussianBlur stdDeviation="7.5"/>
<feComposite in2="hardAlpha" operator="out"/>
<feColorMatrix type="matrix" values="0 0 0 0 0 0 0 0 0 0 0 0 0 0 0 0 0 0 0.2 0"/>
<feBlend mode="normal" in2="BackgroundImageFix" result="effect1_dropShadow_1137_703"/>
<feBlend mode="normal" in="SourceGraphic" in2="effect1_dropShadow_1137_703" result="shape"/>
</filter>
<filter id="filter1_d_1137_703" x="4.38696" y="0.962509" width="42.6685" height="42.6668" filterUnits="userSpaceOnUse" color-interpolation-filters="sRGB">
<feFlood flood-opacity="0" result="BackgroundImageFix"/>
<feColorMatrix in="SourceAlpha" type="matrix" values="0 0 0 0 0 0 0 0 0 0 0 0 0 0 0 0 0 0 127 0" result="hardAlpha"/>
<feOffset dx="-4" dy="4"/>
<feGaussianBlur stdDeviation="7.5"/>
<feComposite in2="hardAlpha" operator="out"/>
<feColorMatrix type="matrix" values="0 0 0 0 0 0 0 0 0 0 0 0 0 0 0 0 0 0 0.2 0"/>
<feBlend mode="normal" in2="BackgroundImageFix" result="effect1_dropShadow_1137_703"/>
<feBlend mode="normal" in="SourceGraphic" in2="effect1_dropShadow_1137_703" result="shape"/>
</filter>
<filter id="filter2_d_1137_703" x="10.938" y="2.96353" width="34.1167" height="34.1167" filterUnits="userSpaceOnUse" color-interpolation-filters="sRGB">
<feFlood flood-opacity="0" result="BackgroundImageFix"/>
<feColorMatrix in="SourceAlpha" type="matrix" values="0 0 0 0 0 0 0 0 0 0 0 0 0 0 0 0 0 0 127 0" result="hardAlpha"/>
<feOffset dx="-4" dy="4"/>
<feGaussianBlur stdDeviation="7.5"/>
<feComposite in2="hardAlpha" operator="out"/>
<feColorMatrix type="matrix" values="0 0 0 0 0 0 0 0 0 0 0 0 0 0 0 0 0 0 0.2 0"/>
<feBlend mode="normal" in2="BackgroundImageFix" result="effect1_dropShadow_1137_703"/>
<feBlend mode="normal" in="SourceGraphic" in2="effect1_dropShadow_1137_703" result="shape"/>
</filter>
</defs>
</svg>
