<svg width="25" height="25" viewBox="0 0 25 25" fill="none" xmlns="http://www.w3.org/2000/svg">
<path d="M14.5475 9.97L9.4875 15.03C8.8375 14.38 8.4375 13.49 8.4375 12.5C8.4375 10.52 10.0375 8.92 12.0175 8.92C13.0075 8.92 13.8975 9.32 14.5475 9.97Z" stroke="#A74BFF" stroke-width="1.5" stroke-linecap="round" stroke-linejoin="round"/>
<path d="M17.8374 6.27C16.0874 4.95 14.0874 4.23 12.0174 4.23C8.48742 4.23 5.19742 6.31 2.90742 9.91C2.00742 11.32 2.00742 13.69 2.90742 15.1C3.69742 16.34 4.61742 17.41 5.61742 18.27" stroke="#A74BFF" stroke-width="1.5" stroke-linecap="round" stroke-linejoin="round"/>
<path d="M8.4375 20.03C9.5775 20.51 10.7875 20.77 12.0175 20.77C15.5475 20.77 18.8375 18.69 21.1275 15.09C22.0275 13.68 22.0275 11.31 21.1275 9.89999C20.7975 9.37999 20.4375 8.88999 20.0675 8.42999" stroke="#A74BFF" stroke-width="1.5" stroke-linecap="round" stroke-linejoin="round"/>
<path d="M15.5274 13.2C15.2674 14.61 14.1174 15.76 12.7074 16.02" stroke="#A74BFF" stroke-width="1.5" stroke-linecap="round" stroke-linejoin="round"/>
<path d="M9.48746 15.03L2.01746 22.5" stroke="#A74BFF" stroke-width="1.5" stroke-linecap="round" stroke-linejoin="round"/>
<path d="M22.0175 2.5L14.5475 9.97" stroke="#A74BFF" stroke-width="1.5" stroke-linecap="round" stroke-linejoin="round"/>
</svg>
