<svg width="17" height="31" viewBox="0 0 17 31" fill="none" xmlns="http://www.w3.org/2000/svg">
<path fill-rule="evenodd" clip-rule="evenodd" d="M10.4862 0.152459C7.73824 0.712334 5.92115 2.32365 5.11279 4.91727C4.81628 5.86872 4.73653 6.73351 4.73608 9.00273L4.73562 11.1444L2.6601 11.1456C0.361555 11.1468 0.263682 11.1643 0.112797 11.6013C-0.0143242 11.9697 -0.0143242 16.6866 0.112797 17.0578C0.254009 17.47 0.449223 17.5035 2.73626 17.5084L4.73562 17.5127V24.0283V30.5439L4.91933 30.7567L5.10312 30.9694L7.83269 30.9928C10.7742 31.0181 11.047 30.9914 11.1972 30.6633C11.2625 30.5206 11.2859 28.751 11.2859 23.9561V17.4427L13.8348 17.4208C16.1629 17.4009 16.3956 17.3872 16.5197 17.2636C16.6453 17.1385 16.6556 16.9129 16.6556 14.29V11.4519L16.4822 11.2792C16.3097 11.1074 16.2957 11.1064 13.7909 11.0846L11.273 11.0627L11.2989 9.03768C11.3268 6.86027 11.3446 6.75823 11.7628 6.36317C12.0818 6.06181 12.2663 6.03589 14.3964 5.99305L16.4785 5.95128L16.6623 5.73855L16.846 5.52582V2.94903V0.372164L16.659 0.18612L16.4721 0L13.8219 0.00636822C11.5635 0.0118267 11.0703 0.0334334 10.4862 0.152459Z" fill="#518BE1"/>
</svg>
