<svg width="22" height="20" viewBox="0 0 22 20" fill="none" xmlns="http://www.w3.org/2000/svg">
<path d="M10.9492 19.3176C10.6392 19.3176 10.3392 19.2776 10.0892 19.1876C6.26922 17.8776 0.199219 13.2276 0.199219 6.35758C0.199219 2.85758 3.02922 0.0175781 6.50922 0.0175781C8.19922 0.0175781 9.77922 0.677578 10.9492 1.85758C12.1192 0.677578 13.6992 0.0175781 15.3892 0.0175781C18.8692 0.0175781 21.6992 2.86758 21.6992 6.35758C21.6992 13.2376 15.6292 17.8776 11.8092 19.1876C11.5592 19.2776 11.2592 19.3176 10.9492 19.3176ZM6.50922 1.51758C3.85922 1.51758 1.69922 3.68758 1.69922 6.35758C1.69922 13.1876 8.26922 16.9876 10.5792 17.7776C10.7592 17.8376 11.1492 17.8376 11.3292 17.7776C13.6292 16.9876 20.2092 13.1976 20.2092 6.35758C20.2092 3.68758 18.0492 1.51758 15.3992 1.51758C13.8792 1.51758 12.4692 2.22758 11.5592 3.45758C11.2792 3.83758 10.6392 3.83758 10.3592 3.45758C9.42922 2.21758 8.02922 1.51758 6.50922 1.51758Z" fill="#10011C"/>
</svg>
