<svg width="60" height="61" viewBox="0 0 60 61" fill="none" xmlns="http://www.w3.org/2000/svg">
<g filter="url(#filter0_d_408_1105)">
<rect x="12" y="8.82324" width="40" height="40" rx="10" fill="white"/>
</g>
<path d="M26.5 38.8232V31.8232" stroke="#A74BFF" stroke-width="1.5" stroke-miterlimit="10" stroke-linecap="round" stroke-linejoin="round"/>
<path d="M26.5 21.8232V18.8232" stroke="#A74BFF" stroke-width="1.5" stroke-miterlimit="10" stroke-linecap="round" stroke-linejoin="round"/>
<path d="M37.5 38.8232V35.8232" stroke="#A74BFF" stroke-width="1.5" stroke-miterlimit="10" stroke-linecap="round" stroke-linejoin="round"/>
<path d="M37.5 25.8232V18.8232" stroke="#A74BFF" stroke-width="1.5" stroke-miterlimit="10" stroke-linecap="round" stroke-linejoin="round"/>
<path d="M29.5 23.8232V29.8232C29.5 30.9232 29 31.8232 27.5 31.8232H25.5C24 31.8232 23.5 30.9232 23.5 29.8232V23.8232C23.5 22.7232 24 21.8232 25.5 21.8232H27.5C29 21.8232 29.5 22.7232 29.5 23.8232Z" stroke="#A74BFF" stroke-width="1.5" stroke-miterlimit="10" stroke-linecap="round" stroke-linejoin="round"/>
<path d="M40.5 27.8232V33.8232C40.5 34.9232 40 35.8232 38.5 35.8232H36.5C35 35.8232 34.5 34.9232 34.5 33.8232V27.8232C34.5 26.7232 35 25.8232 36.5 25.8232H38.5C40 25.8232 40.5 26.7232 40.5 27.8232Z" stroke="#A74BFF" stroke-width="1.5" stroke-miterlimit="10" stroke-linecap="round" stroke-linejoin="round"/>
<defs>
<filter id="filter0_d_408_1105" x="0" y="0.823242" width="60" height="60" filterUnits="userSpaceOnUse" color-interpolation-filters="sRGB">
<feFlood flood-opacity="0" result="BackgroundImageFix"/>
<feColorMatrix in="SourceAlpha" type="matrix" values="0 0 0 0 0 0 0 0 0 0 0 0 0 0 0 0 0 0 127 0" result="hardAlpha"/>
<feOffset dx="-2" dy="2"/>
<feGaussianBlur stdDeviation="5"/>
<feComposite in2="hardAlpha" operator="out"/>
<feColorMatrix type="matrix" values="0 0 0 0 0 0 0 0 0 0 0 0 0 0 0 0 0 0 0.05 0"/>
<feBlend mode="normal" in2="BackgroundImageFix" result="effect1_dropShadow_408_1105"/>
<feBlend mode="normal" in="SourceGraphic" in2="effect1_dropShadow_408_1105" result="shape"/>
</filter>
</defs>
</svg>
