<svg width="32" height="31" viewBox="0 0 32 31" fill="none" xmlns="http://www.w3.org/2000/svg">
<path d="M20.272 23.6445C22.1497 22.5122 23.5136 20.9466 24.3284 18.8944C24.1956 18.8237 24.0716 18.8502 23.9564 18.8502C21.7777 18.8502 19.5989 18.8502 17.4113 18.8502C16.5788 18.8502 16.2068 18.4875 16.2068 17.6649C16.2068 16.4177 16.2068 15.1705 16.2068 13.9144C16.2068 13.1802 16.5965 12.791 17.3404 12.791C21.4588 12.791 25.5772 12.791 29.6956 12.791C30.4484 12.791 30.8116 13.1095 30.9001 13.8702C31.3961 18.0364 30.3156 21.7692 27.7471 25.0686C26.5249 26.6343 25.0281 27.908 23.2833 28.881C22.2825 27.1385 21.2817 25.387 20.272 23.6445Z" fill="#167EE5"/>
<path d="M20.2719 23.6445C21.2816 25.3959 22.2824 27.1385 23.2921 28.8899C22.5127 29.4206 21.6447 29.7744 20.7679 30.0929C13.8773 32.5873 6.02141 29.7921 2.26615 23.4941C2.21301 23.4056 2.17758 23.3172 2.1333 23.2287C3.86922 22.2292 5.614 21.2208 7.34992 20.2213C7.87247 20.9997 8.42159 21.7604 9.12127 22.3973C10.8926 24.0071 12.974 24.8828 15.3653 24.9094C17.0038 24.9359 18.5537 24.5644 19.9973 23.7683C20.0859 23.7152 20.1833 23.6799 20.2719 23.6445Z" fill="#13B347"/>
<path d="M7.34996 20.2124C5.61404 21.212 3.86927 22.2204 2.13334 23.2199C1.38052 22.0258 0.857973 20.7255 0.521417 19.3633C-0.470538 15.4005 -0.00113035 11.6234 1.95621 8.0233C2.00935 7.926 2.07135 7.83754 2.13334 7.74908C3.86927 8.74863 5.61404 9.75702 7.34996 10.7566C6.97798 11.5173 6.606 12.278 6.40229 13.1095C5.80003 15.5066 6.07459 17.7888 7.25254 19.9648C7.28797 20.0532 7.31454 20.1328 7.34996 20.2124Z" fill="#FED401"/>
<path d="M7.34992 10.7654C5.614 9.76582 3.86922 8.75743 2.1333 7.75789C2.77984 6.54605 3.62123 5.49343 4.59547 4.52927C7.03108 2.11444 9.9538 0.654927 13.3548 0.150732C14.0633 0.0445859 14.7807 -0.0261782 15.4981 0.00920394C15.4981 2.01714 15.4981 4.03392 15.4981 6.04185C14.3467 6.09493 13.2131 6.26299 12.1326 6.69642C10.1929 7.47483 8.66072 8.73974 7.53591 10.5C7.48277 10.5973 7.41192 10.6769 7.34992 10.7654Z" fill="#FE4B27"/>
<path d="M15.4982 6.0419C15.4982 4.03397 15.4982 2.01719 15.4982 0.00925237C17.6769 -0.0438208 19.7494 0.424992 21.7333 1.29185C23.1504 1.91104 24.4435 2.73367 25.6126 3.73322C26.1528 4.19319 26.206 4.82122 25.7188 5.32541C24.7977 6.26304 23.8678 7.19182 22.929 8.1206C22.5039 8.54518 21.9547 8.57172 21.4942 8.20021C20.1834 7.14759 18.7043 6.48418 17.0481 6.19227C16.5344 6.10382 16.0119 6.1392 15.4982 6.0419Z" fill="#D83F22"/>
</svg>
