<svg width="22" height="22" viewBox="0 0 22 22" fill="none" xmlns="http://www.w3.org/2000/svg">
<path d="M2.72697 5.58121L2.72732 5.58093L8.11697 1.38121C8.11705 1.38115 8.11713 1.38108 8.11721 1.38102C9.5633 0.256487 11.912 0.201659 13.4126 1.25569L13.4131 1.25603L19.5931 5.58603L19.594 5.58663C20.1081 5.9452 20.5896 6.52875 20.9431 7.2055C21.2965 7.88228 21.5 8.61047 21.5 9.23656V16.5166C21.5 18.9711 19.5032 20.9766 17.04 20.9766H5.46C2.99745 20.9766 1 18.9717 1 16.5066V9.09656C1 8.51108 1.18347 7.81922 1.5038 7.16694C1.82405 6.51483 2.26069 5.94387 2.72697 5.58121Z" stroke="black"/>
</svg>
