<svg width="179" height="107" viewBox="0 0 179 107" fill="none" xmlns="http://www.w3.org/2000/svg">
<path d="M23.0173 50.1453C24.8783 50.5815 26.3177 51.4829 27.3354 52.8496C28.3822 54.1872 28.9056 55.7428 28.9056 57.5166C28.9056 60.2209 28.0042 62.3145 26.2014 63.7975C24.4276 65.2514 21.8687 65.9784 18.5247 65.9784H2.34273V35.0973H18.0886C21.229 35.0973 23.7007 35.7807 25.5035 37.1473C27.3063 38.514 28.2078 40.5059 28.2078 43.1229C28.2078 44.9258 27.728 46.4524 26.7684 47.7027C25.8379 48.924 24.5875 49.7382 23.0173 50.1453ZM12.0258 47.1357H15.7768C16.6492 47.1357 17.2889 46.9612 17.696 46.6123C18.1322 46.2634 18.3503 45.7254 18.3503 44.9985C18.3503 44.2424 18.1322 43.6899 17.696 43.341C17.2889 42.963 16.6492 42.774 15.7768 42.774H12.0258V47.1357ZM16.4311 58.2145C17.3035 58.2145 17.9432 58.0546 18.3503 57.7347C18.7864 57.3858 19.0045 56.8333 19.0045 56.0772C19.0045 54.5943 18.1467 53.8528 16.4311 53.8528H12.0258V58.2145H16.4311Z" fill="url(#paint0_linear_408_810)"/>
<path d="M52.601 66.2837C49.6932 66.2837 47.018 65.6003 44.5754 64.2337C42.1619 62.867 40.2427 60.9769 38.8179 58.5634C37.3931 56.1499 36.6807 53.4311 36.6807 50.407C36.6807 47.3829 37.3931 44.6641 38.8179 42.2506C40.2427 39.8371 42.1619 37.9615 44.5754 36.6239C47.018 35.2573 49.6932 34.5739 52.601 34.5739C55.5088 34.5739 58.1694 35.2573 60.5829 36.6239C62.9964 37.9615 64.901 39.8371 66.2968 42.2506C67.7216 44.6641 68.434 47.3829 68.434 50.407C68.434 53.4311 67.7216 56.1499 66.2968 58.5634C64.901 60.9769 62.9819 62.867 60.5393 64.2337C58.1258 65.6003 55.4797 66.2837 52.601 66.2837ZM52.601 57.2549C54.5201 57.2549 56.0031 56.6443 57.0499 55.423C58.0968 54.1726 58.6202 52.5006 58.6202 50.407C58.6202 48.2843 58.0968 46.6123 57.0499 45.391C56.0031 44.1406 54.5201 43.5155 52.601 43.5155C50.6527 43.5155 49.1552 44.1406 48.1084 45.391C47.0616 46.6123 46.5382 48.2843 46.5382 50.407C46.5382 52.5006 47.0616 54.1726 48.1084 55.423C49.1552 56.6443 50.6527 57.2549 52.601 57.2549Z" fill="url(#paint1_linear_408_810)"/>
<path d="M166.791 65.9779L157.805 52.5874V65.9779H148.122V35.0968H157.805V48.0948L166.66 35.0968H177.608L166.965 49.8831L178.305 65.9779H166.791Z" fill="url(#paint2_linear_408_810)"/>
<path d="M94.5572 89.2479H178.941L169.258 105.744H84.8738L94.5572 89.2479Z" fill="white"/>
<path d="M112.659 95.2004V100.584H111.775V96.8969L110.133 100.584H109.521L107.871 96.8969V100.584H106.988V95.2004H107.941L109.831 99.4223L111.713 95.2004H112.659ZM119.668 95.2004L117.886 98.6321V100.584H117.003V98.6321L115.214 95.2004H116.198L117.445 97.842L118.692 95.2004H119.668ZM129.865 96.8039C129.865 97.0776 129.8 97.3359 129.671 97.5786C129.542 97.8213 129.335 98.0202 129.051 98.1751C128.767 98.3249 128.403 98.3997 127.959 98.3997H126.983V100.584H126.1V95.2004H127.959C128.372 95.2004 128.721 95.2727 129.005 95.4173C129.294 95.5567 129.508 95.7478 129.648 95.9905C129.792 96.2332 129.865 96.5044 129.865 96.8039ZM127.959 97.6793C128.295 97.6793 128.545 97.6044 128.71 97.4546C128.876 97.2997 128.958 97.0828 128.958 96.8039C128.958 96.2152 128.625 95.9208 127.959 95.9208H126.983V97.6793H127.959ZM133.449 99.8716H135.27V100.584H132.566V95.2004H133.449V99.8716ZM141.113 99.4843H138.859L138.472 100.584H137.55L139.479 95.1926H140.501L142.43 100.584H141.501L141.113 99.4843ZM140.865 98.7638L139.99 96.2617L139.107 98.7638H140.865ZM144.834 97.8807C144.834 97.3539 144.955 96.8814 145.198 96.4631C145.446 96.0447 145.779 95.7194 146.197 95.487C146.621 95.2494 147.083 95.1306 147.584 95.1306C148.157 95.1306 148.666 95.2727 149.11 95.5567C149.559 95.8356 149.885 96.2332 150.086 96.7497H149.025C148.885 96.4657 148.692 96.2539 148.444 96.1145C148.196 95.975 147.909 95.9053 147.584 95.9053C147.228 95.9053 146.91 95.9854 146.631 96.1455C146.352 96.3056 146.133 96.5354 145.973 96.8349C145.818 97.1345 145.74 97.4831 145.74 97.8807C145.74 98.2784 145.818 98.627 145.973 98.9265C146.133 99.2261 146.352 99.4585 146.631 99.6237C146.91 99.7838 147.228 99.8639 147.584 99.8639C147.909 99.8639 148.196 99.7942 148.444 99.6547C148.692 99.5153 148.885 99.3035 149.025 99.0195H150.086C149.885 99.5359 149.559 99.9336 149.11 100.212C148.666 100.491 148.157 100.631 147.584 100.631C147.078 100.631 146.616 100.515 146.197 100.282C145.779 100.045 145.446 99.7167 145.198 99.2984C144.955 98.88 144.834 98.4075 144.834 97.8807ZM153.862 95.9131V97.4934H155.721V98.2138H153.862V99.8639H155.954V100.584H152.979V95.1926H155.954V95.9131H153.862Z" fill="#3B0648"/>
<g filter="url(#filter0_d_408_810)">
<path fill-rule="evenodd" clip-rule="evenodd" d="M75.5823 45.1225C75.5823 37.002 78.5012 29.5694 83.3382 23.8344V43.5182C83.2858 44.1718 83.2591 44.8327 83.2591 45.4999C83.2591 59.0212 94.2204 69.9825 107.742 69.9825C121.263 69.9825 132.224 59.0212 132.224 45.4999C132.224 31.9785 121.263 21.0173 107.742 21.0173C101.993 21.0173 96.7066 22.9988 92.529 26.3161V16.2786C97.1683 13.7143 102.494 12.2563 108.157 12.2563C126.147 12.2563 140.731 26.971 140.731 45.1225C140.731 63.274 126.147 77.9887 108.157 77.9887C104.166 77.9887 100.342 77.2645 96.8083 75.9392L79.274 82.9781L81.9015 64.5799C77.9292 59.1325 75.5823 52.4041 75.5823 45.1225Z" fill="url(#paint3_linear_408_810)"/>
</g>
<path fill-rule="evenodd" clip-rule="evenodd" d="M123.655 45.5001C123.655 54.2892 116.53 61.4142 107.741 61.4142C98.9519 61.4142 91.8269 54.2892 91.8269 45.5001C91.8269 36.7109 98.9519 29.5859 107.741 29.5859C116.53 29.5859 123.655 36.7109 123.655 45.5001ZM102.054 33.7226C100.134 34.1531 99.3762 34.634 98.1353 36.2087L97.5624 36.9357L97.7347 37.0897C97.9312 37.2653 98.1194 37.3268 98.312 37.2784C98.3933 37.258 98.6129 37.0379 98.8758 36.7132C99.346 36.1326 99.7236 35.7703 100.184 35.458C100.817 35.0285 101.309 34.8291 102.323 34.5909C102.782 34.483 103.078 34.3852 103.134 34.3228C103.331 34.1059 103.277 33.5 103.063 33.5113C103.015 33.5139 102.56 33.6089 102.054 33.7226ZM113.219 33.7749C113.109 33.988 113.114 34.2811 113.231 34.4211C113.283 34.4836 113.579 34.6446 113.888 34.7789C115.268 35.3781 116.103 36.1714 116.862 37.6039C117.059 37.9743 117.225 38.2196 117.312 38.2684C117.482 38.3634 117.789 38.3165 117.969 38.1681L118.095 38.064L117.752 37.39C117.245 36.3927 116.978 35.9579 116.631 35.5702C116.222 35.1119 115.846 34.7929 115.401 34.5272C115.001 34.2882 113.511 33.615 113.383 33.615C113.338 33.615 113.264 33.687 113.219 33.7749ZM100.804 35.6948C100.211 35.9707 99.9054 36.4098 99.8684 37.0382C99.841 37.5029 99.9588 37.8641 100.243 38.1869C100.975 39.0184 102.255 38.8775 102.828 37.9024C102.958 37.6805 102.975 37.5975 102.975 37.1646C102.975 36.6345 102.878 36.3583 102.577 36.0333C102.169 35.5927 101.356 35.4375 100.804 35.6948ZM102.961 35.6042C102.806 35.6342 102.807 35.6451 103.003 35.8926C103.231 36.18 103.385 36.5509 103.421 36.8991C103.449 37.1718 103.471 37.2117 103.716 37.4168C103.862 37.539 104.017 37.7064 104.059 37.7887C104.102 37.871 104.212 38.5203 104.304 39.2315C104.407 40.026 104.503 40.5726 104.553 40.6491C104.847 41.102 105.518 41.0636 105.749 40.5808C105.83 40.4111 105.826 40.2873 105.695 38.795C105.589 37.585 105.533 37.155 105.465 37.0426C105.415 36.9607 105.043 36.6383 104.638 36.3262C103.758 35.6485 103.441 35.5118 102.961 35.6042ZM111.926 35.6446C111.58 35.7679 110.148 36.6141 110.06 36.747C109.971 36.8812 109.288 39.7611 109.289 40.0003C109.289 40.3245 109.639 40.6604 109.977 40.6599C110.161 40.6596 110.446 40.4937 110.554 40.324C110.597 40.2555 110.78 39.6544 110.961 38.9882C111.141 38.322 111.324 37.7216 111.369 37.654C111.413 37.5864 111.609 37.4375 111.805 37.3231C112.095 37.1536 112.161 37.0895 112.161 36.9772C112.162 36.7557 112.406 36.2929 112.673 36.0081C112.808 35.863 112.919 35.731 112.919 35.7147C112.919 35.6558 112.573 35.566 112.356 35.5683C112.233 35.5696 112.04 35.6039 111.926 35.6446ZM113.418 35.9484C113.066 36.1242 112.88 36.3082 112.687 36.6706C112.592 36.8493 112.568 36.9852 112.568 37.3543C112.567 37.7698 112.583 37.8442 112.735 38.113C112.926 38.4516 113.307 38.7703 113.64 38.8701C114.677 39.1808 115.698 38.4286 115.698 37.3543C115.698 36.1747 114.475 35.4203 113.418 35.9484ZM107.364 37.1768C106.953 37.1923 106.098 37.3001 105.955 37.3546C105.85 37.3944 105.848 37.4215 105.894 38.0119C105.921 38.3507 105.95 38.6364 105.959 38.6469C105.968 38.6573 106.227 38.6236 106.534 38.572C106.978 38.4976 107.278 38.4846 107.988 38.5093C108.479 38.5265 108.972 38.5635 109.083 38.5915C109.278 38.6409 109.286 38.637 109.338 38.4726C109.394 38.2955 109.614 37.4358 109.614 37.393C109.614 37.2965 108.086 37.1497 107.364 37.1768ZM99.4406 37.9863C99.293 38.1982 99.2085 38.4678 99.2085 38.7269C99.2085 38.9845 99.6665 40.7268 99.7796 40.8995C99.8231 40.966 100.477 41.3463 101.26 41.7606C102.745 42.5465 102.885 42.5937 103.221 42.4204C103.527 42.2621 103.643 41.7703 103.449 41.4548C103.385 41.3513 102.983 41.0847 102.216 40.6382C100.977 39.9166 100.9 39.8462 100.786 39.3385C100.726 39.0685 100.694 39.0203 100.518 38.9307C100.21 38.7733 99.8738 38.4399 99.703 38.1218L99.5478 37.8326L99.4406 37.9863ZM103.381 38.3369C103.128 38.4854 102.744 38.7422 102.528 38.9076C102.064 39.2628 101.392 39.8796 101.43 39.9148C101.445 39.9284 101.716 40.0726 102.031 40.2354L102.604 40.5313L102.844 40.3233C102.976 40.2089 103.298 39.9635 103.561 39.778L104.039 39.4407L104.01 39.224C103.995 39.1047 103.966 38.7938 103.946 38.533C103.927 38.2722 103.895 38.0607 103.876 38.0629C103.857 38.0651 103.635 38.1884 103.381 38.3369ZM111.407 38.4246C111.255 38.9404 111.168 39.3067 111.192 39.3254C111.203 39.3342 111.419 39.4752 111.673 39.6388C111.926 39.8023 112.27 40.0474 112.437 40.1835L112.74 40.4307L113.358 40.1852C113.698 40.0501 113.988 39.9286 114.003 39.915C114.046 39.8757 113.214 39.111 112.829 38.8363C112.434 38.554 111.624 38.0588 111.558 38.0588C111.534 38.0588 111.466 38.2234 111.407 38.4246ZM115.846 38.3781C115.846 38.4047 115.733 38.5513 115.596 38.7039C115.425 38.8947 115.223 39.0408 114.952 39.1714C114.576 39.3522 114.551 39.3758 114.435 39.6614C114.361 39.8442 114.247 40.0097 114.145 40.0847C114.052 40.1525 113.476 40.4113 112.865 40.66C112.151 40.9505 111.693 41.1687 111.584 41.2705C111.292 41.5414 111.291 41.948 111.581 42.2312C111.884 42.5277 111.967 42.516 113.507 41.9596C114.271 41.683 114.998 41.4004 115.12 41.3314C115.332 41.2124 115.362 41.1614 115.712 40.3234C116.126 39.334 116.203 38.9132 116.044 38.5308C115.968 38.3498 115.846 38.2554 115.846 38.3781ZM99.926 42.1097C99.7748 42.4301 99.577 42.9317 99.4865 43.2242C99.311 43.7909 99.1084 44.8593 99.1656 44.9165C99.1845 44.9354 99.464 44.995 99.7868 45.0489C100.426 45.1558 100.452 45.1487 100.455 44.86C100.461 44.3842 100.8 43.2774 101.163 42.5449L101.371 42.1264L100.812 41.8268C100.505 41.662 100.242 41.5272 100.227 41.5272C100.213 41.5272 100.077 41.7894 99.926 42.1097ZM114.599 41.8066C114.316 41.9268 114.078 42.0312 114.071 42.0385C114.063 42.0457 114.176 42.3056 114.322 42.6158C114.651 43.3157 114.844 43.921 114.96 44.6183C115.042 45.1161 115.058 45.1542 115.163 45.1309C115.225 45.1171 115.491 45.0699 115.752 45.026C116.013 44.9822 116.248 44.9336 116.273 44.9181C116.33 44.883 116.221 44.1875 116.065 43.5804C115.847 42.7365 115.356 41.6204 115.194 41.5987C115.15 41.5928 114.882 41.6864 114.599 41.8066ZM98.5513 45.1552C98.325 45.2254 96.8961 46.3297 96.7463 46.5502C96.6185 46.7383 96.4515 47.2966 96.5066 47.3517C96.5205 47.3655 96.6329 47.3269 96.7565 47.2658C97.0458 47.1226 97.5013 47.0619 97.8907 47.1148C98.1803 47.1541 98.2108 47.147 98.4007 46.9965C98.8261 46.6597 98.8532 46.6572 100.168 46.8377C100.818 46.9268 101.457 46.9999 101.588 47.0002C102.148 47.0013 102.457 46.408 102.145 45.9276C101.99 45.6877 101.923 45.6702 99.6962 45.2872C99.264 45.2129 98.8616 45.1429 98.802 45.1316C98.7424 45.1203 98.6296 45.1309 98.5513 45.1552ZM115.277 45.3707C114.502 45.5116 113.805 45.6428 113.727 45.6623C113.215 45.7917 113.044 46.4712 113.432 46.8363C113.634 47.026 113.946 47.0275 115.282 46.845C115.941 46.755 116.538 46.6957 116.61 46.7129C116.681 46.7303 116.865 46.8376 117.019 46.9514C117.286 47.1494 117.31 47.1566 117.571 47.1152C117.922 47.0597 118.467 47.1344 118.737 47.2751C118.853 47.3356 118.959 47.3734 118.974 47.3592C119.023 47.3096 118.877 46.7636 118.766 46.584C118.55 46.2354 116.925 45.0679 116.713 45.1093C116.698 45.1122 116.052 45.2299 115.277 45.3707ZM94.527 46.5029C94.512 46.5272 94.4835 47.0698 94.4637 47.7087C94.4315 48.747 94.4392 48.925 94.5355 49.3851C94.6792 50.0721 94.9288 50.6996 95.2599 51.2068C95.5687 51.6799 96.3063 52.666 96.39 52.7177C96.4801 52.7734 96.7759 52.5271 96.8596 52.3266C96.9613 52.0833 96.9305 52.004 96.5199 51.4505C95.9305 50.6562 95.5575 49.8269 95.4121 48.9874C95.3769 48.7836 95.3447 48.1871 95.3408 47.662L95.3337 46.7071L95.1495 46.5829C94.9677 46.4603 94.5838 46.4109 94.527 46.5029ZM120.425 46.5086C120.152 46.6235 120.139 46.6847 120.113 47.8948C120.093 48.8482 120.07 49.1032 119.97 49.4664C119.804 50.0705 119.385 50.8979 118.964 51.4539C118.541 52.0132 118.498 52.1568 118.675 52.4199C118.785 52.5826 119.079 52.7928 119.118 52.7365C119.125 52.7263 119.318 52.4701 119.546 52.1672C120.86 50.4219 121.117 49.6093 121.016 47.5155L120.967 46.4858L120.75 46.4744C120.631 46.4681 120.485 46.4835 120.425 46.5086ZM99.187 47.1184C99.2698 47.5905 99.486 48.4249 99.6135 48.7643C99.8027 49.268 100.083 49.8729 100.127 49.8729C100.159 49.8729 100.486 49.5394 100.906 49.0778L101.06 48.9092L100.866 48.3903C100.759 48.1049 100.636 47.7217 100.594 47.5389C100.551 47.356 100.506 47.1961 100.493 47.1834C100.481 47.1708 100.241 47.1242 99.9613 47.08C99.6814 47.0357 99.3855 46.9857 99.3038 46.9688C99.1612 46.9393 99.1566 46.9452 99.187 47.1184ZM115.509 47.0698L114.929 47.1799L114.867 47.4764C114.803 47.7832 114.691 48.1282 114.501 48.6045L114.391 48.8807L114.87 49.3575L115.349 49.8343L115.536 49.4607C115.789 48.9585 116.038 48.2161 116.17 47.5725C116.23 47.2813 116.279 47.0212 116.279 46.9947C116.279 46.9312 116.197 46.9392 115.509 47.0698ZM97.2304 47.5361C96.5323 47.7204 96.0111 48.3834 96.0111 49.0871C96.0111 49.6599 96.3836 50.2538 96.9123 50.5238C97.2765 50.7099 97.9326 50.7155 98.2721 50.5355C99.2265 50.0294 99.4786 48.8355 98.7988 48.0413C98.4533 47.6377 97.7291 47.4044 97.2304 47.5361ZM117.374 47.5877C116.62 47.857 116.188 48.5981 116.332 49.3774C116.428 49.8945 116.715 50.2698 117.221 50.5384C117.547 50.7111 118.215 50.7069 118.555 50.53C119.526 50.025 119.771 48.8213 119.063 48.034C118.643 47.5662 117.949 47.3828 117.374 47.5877ZM102.232 48.2631C102.151 48.299 101.785 48.621 101.418 48.9787C101.052 49.3364 100.613 49.7571 100.444 49.9135L100.136 50.198H99.6932H99.25L98.9331 50.4915C98.6279 50.774 98.1594 51.0109 97.9058 51.0109C97.7559 51.0109 97.7729 51.0729 97.9756 51.2652C98.3421 51.6131 98.4254 51.6326 99.6149 51.6501C100.577 51.6642 100.718 51.655 100.867 51.5688C101.037 51.4708 102.924 49.5001 103.089 49.248C103.205 49.0711 103.168 48.6175 103.023 48.4558C102.909 48.3273 102.623 48.1916 102.475 48.1953C102.422 48.1967 102.313 48.2271 102.232 48.2631ZM112.724 48.2703C112.338 48.4382 112.192 48.9831 112.444 49.3101C112.761 49.7214 114.526 51.5343 114.67 51.5975C114.793 51.651 115.102 51.6648 115.896 51.6516C116.873 51.6355 116.975 51.6246 117.185 51.5123C117.406 51.3941 117.688 51.136 117.688 51.0521C117.688 51.0295 117.64 51.0109 117.582 51.0109C117.328 51.0109 116.86 50.774 116.555 50.4915L116.238 50.198H115.8C115.773 50.198 115.748 50.1982 115.725 50.1984C115.617 50.1991 115.538 50.1996 115.462 50.1832C115.247 50.1368 115.062 49.9549 114.351 49.2579C114.296 49.2041 114.238 49.1472 114.177 49.0871C113.244 48.1728 113.115 48.1002 112.724 48.2703ZM113.119 50.7682C112.767 51.2102 111.783 51.9552 111.089 52.3052C110.904 52.399 110.752 52.5001 110.752 52.5299C110.752 52.6317 111.207 53.6664 111.252 53.6664C111.345 53.6664 112.097 53.2604 112.486 52.9997C113.003 52.6529 113.63 52.1336 113.97 51.7709L114.234 51.4881L113.781 51.0328C113.532 50.7823 113.315 50.5774 113.3 50.5774C113.284 50.5774 113.203 50.6633 113.119 50.7682ZM101.746 51.068C101.528 51.3081 101.342 51.5246 101.333 51.5492C101.308 51.6192 102.134 52.3987 102.605 52.7497C103.097 53.1167 103.997 53.6308 104.157 53.6358C104.238 53.6384 104.35 53.5093 104.58 53.1515C104.752 52.8833 104.892 52.6394 104.892 52.6096C104.892 52.5798 104.678 52.4527 104.417 52.3272C103.812 52.036 103.125 51.5473 102.601 51.0344C102.374 50.8128 102.178 50.6316 102.165 50.6316C102.153 50.6316 101.964 50.828 101.746 51.068ZM106.474 51.0002C106.402 51.0116 106.287 51.0573 106.22 51.1015C106.152 51.1459 105.717 51.7866 105.254 52.5254C104.537 53.6671 104.411 53.9005 104.411 54.0814C104.411 54.4155 104.866 56.0231 105.031 56.2727C105.11 56.3923 105.29 56.563 105.43 56.652L105.685 56.8138L105.717 56.3475C105.744 55.9603 105.782 55.8196 105.937 55.5189L106.123 55.1567L106.022 54.7842C105.966 54.5794 105.933 54.3599 105.949 54.2965C105.965 54.2331 106.272 53.6653 106.631 53.0349C107.325 51.8158 107.374 51.6688 107.201 51.335C107.083 51.106 106.757 50.9558 106.474 51.0002ZM109.072 51.2598C108.967 51.3041 108.838 51.4011 108.783 51.4752C108.568 51.7704 108.592 51.887 109.147 53.2245C109.433 53.9144 109.667 54.546 109.666 54.6281C109.664 54.7102 109.606 54.911 109.535 55.0745C109.415 55.3532 109.412 55.3817 109.492 55.5351C109.695 55.9277 109.773 56.4977 109.671 56.8506C109.63 56.9941 109.636 57.0263 109.704 57.0263C109.85 57.0263 110.133 56.8651 110.312 56.6802C110.521 56.4646 111.239 54.778 111.239 54.503C111.239 54.314 110.018 51.6232 109.843 51.4264C109.744 51.3158 109.449 51.1715 109.331 51.1763C109.293 51.1778 109.176 51.2154 109.072 51.2598ZM107.716 53.1095L106.929 53.1272L106.591 53.6676C106.406 53.9648 106.254 54.2295 106.254 54.256C106.254 54.3384 106.522 54.373 107.419 54.4066C108.182 54.4353 109.199 54.3696 109.282 54.2864C109.295 54.2739 109.194 54.0012 109.058 53.6805C108.827 53.1362 108.801 53.0972 108.657 53.0946C108.572 53.0931 108.149 53.0998 107.716 53.1095ZM107.283 54.9093C106.564 55.1289 106.128 55.7146 106.127 56.4622C106.127 57.8368 107.722 58.538 108.766 57.6216C109.202 57.2388 109.383 56.5665 109.21 55.9711C109.084 55.5371 108.626 55.0701 108.204 54.9447C107.899 54.8543 107.512 54.8394 107.283 54.9093ZM104.723 58.0424C104.644 58.1244 104.553 58.2639 104.52 58.3524C104.44 58.5635 104.447 58.5682 105.458 58.9679C106.549 59.3989 106.968 59.4902 107.852 59.489C108.676 59.488 108.899 59.4446 110.118 59.0491L111.03 58.7536L110.994 58.5809C110.943 58.3375 110.831 58.1804 110.638 58.0805C110.479 57.9982 110.445 58.003 109.845 58.192C108.999 58.4584 108.516 58.5438 107.861 58.543C107.175 58.5421 106.521 58.4106 105.743 58.1169C105.04 57.8519 104.913 57.8426 104.723 58.0424ZM104.413 44.8224C104.368 44.7617 104.304 44.7216 104.222 44.7022C104.291 44.6841 104.347 44.6479 104.388 44.5936C104.431 44.5381 104.452 44.4702 104.452 44.3901C104.452 44.2737 104.412 44.1852 104.332 44.1244C104.252 44.0637 104.142 44.0333 104.002 44.0333H103.302V45.406H104.022C104.17 45.406 104.284 45.3737 104.363 45.3091C104.443 45.2432 104.483 45.1501 104.483 45.0299C104.483 44.9511 104.46 44.8819 104.413 44.8224ZM103.9 44.5684H103.733V44.3746H103.9C103.938 44.3746 103.967 44.383 103.985 44.3998C104.004 44.4153 104.014 44.4398 104.014 44.4734C104.014 44.5058 104.004 44.5297 103.985 44.5452C103.967 44.5607 103.938 44.5684 103.9 44.5684ZM104.014 45.0396C103.996 45.0538 103.968 45.0609 103.929 45.0609H103.733V44.867H103.929C104.005 44.867 104.043 44.9 104.043 44.9659C104.043 44.9995 104.033 45.0241 104.014 45.0396ZM105.006 45.3518C105.094 45.397 105.193 45.4196 105.303 45.4196C105.412 45.4196 105.511 45.397 105.599 45.3518C105.687 45.3065 105.756 45.2419 105.805 45.1579C105.855 45.0726 105.88 44.973 105.88 44.8593C105.88 44.7455 105.855 44.6466 105.805 44.5626C105.756 44.4773 105.687 44.412 105.599 44.3668C105.511 44.3216 105.412 44.2989 105.303 44.2989C105.193 44.2989 105.094 44.3216 105.006 44.3668C104.918 44.412 104.849 44.4773 104.799 44.5626C104.749 44.6466 104.725 44.7455 104.725 44.8593C104.725 44.973 104.749 45.0726 104.799 45.1579C104.849 45.2419 104.918 45.3065 105.006 45.3518ZM105.403 45.0008C105.376 45.0318 105.343 45.0474 105.303 45.0474C105.261 45.0474 105.227 45.0318 105.2 45.0008C105.174 44.9685 105.161 44.9213 105.161 44.8593C105.161 44.7972 105.175 44.7507 105.202 44.7197C105.229 44.6874 105.263 44.6712 105.303 44.6712C105.343 44.6712 105.376 44.6874 105.403 44.7197C105.431 44.7507 105.444 44.7972 105.444 44.8593C105.444 44.9213 105.431 44.9685 105.403 45.0008ZM106.394 45.3518C106.482 45.397 106.581 45.4196 106.69 45.4196C106.8 45.4196 106.899 45.397 106.987 45.3518C107.075 45.3065 107.143 45.2419 107.193 45.1579C107.243 45.0726 107.268 44.973 107.268 44.8593C107.268 44.7455 107.243 44.6466 107.193 44.5626C107.143 44.4773 107.075 44.412 106.987 44.3668C106.899 44.3216 106.8 44.2989 106.69 44.2989C106.581 44.2989 106.482 44.3216 106.394 44.3668C106.306 44.412 106.237 44.4773 106.186 44.5626C106.137 44.6466 106.113 44.7455 106.113 44.8593C106.113 44.973 106.137 45.0726 106.186 45.1579C106.237 45.2419 106.306 45.3065 106.394 45.3518ZM106.791 45.0008C106.764 45.0318 106.73 45.0474 106.69 45.0474C106.649 45.0474 106.615 45.0318 106.588 45.0008C106.562 44.9685 106.549 44.9213 106.549 44.8593C106.549 44.7972 106.562 44.7507 106.59 44.7197C106.617 44.6874 106.65 44.6712 106.69 44.6712C106.73 44.6712 106.764 44.6874 106.791 44.7197C106.818 44.7507 106.832 44.7972 106.832 44.8593C106.832 44.9213 106.818 44.9685 106.791 45.0008ZM107.989 44.9698L108.258 45.406H108.772L108.353 44.8632L108.763 44.3125H108.262L107.989 44.7216V43.9713H107.559V45.406H107.989V44.9698ZM110.73 45.406H111.158V44.0333H110.633L110.338 44.8573L110.036 44.0333H109.508V45.406H109.939V44.7216L110.15 45.406H110.519L110.73 44.7216V45.406ZM112.043 45.9296L112.743 44.3125H112.268L112.076 44.867L111.87 44.3125H111.391L111.847 45.3518L111.572 45.9296H112.043ZM106.024 47.741C106.065 47.6699 106.085 47.5911 106.085 47.5045C106.085 47.361 106.039 47.2466 105.949 47.1613C105.86 47.076 105.731 47.0333 105.563 47.0333H104.962V48.406H105.392V47.9698H105.563C105.674 47.9698 105.769 47.9491 105.846 47.9078C105.925 47.8664 105.984 47.8108 106.024 47.741ZM105.648 47.5045C105.648 47.5885 105.604 47.6305 105.515 47.6305H105.392V47.3784H105.515C105.604 47.3784 105.648 47.4204 105.648 47.5045ZM106.807 48.406V46.9713H106.376V48.406H106.807ZM107.156 47.5607C107.117 47.6447 107.098 47.7442 107.098 47.8593C107.098 47.9743 107.117 48.0745 107.156 48.1598C107.196 48.2438 107.251 48.3085 107.319 48.3537C107.388 48.3976 107.464 48.4196 107.55 48.4196C107.621 48.4196 107.682 48.4054 107.734 48.377C107.786 48.3472 107.825 48.3072 107.852 48.2568V48.406H108.281V47.3125H107.852V47.4618C107.825 47.4114 107.786 47.372 107.734 47.3435C107.682 47.3138 107.621 47.2989 107.55 47.2989C107.464 47.2989 107.388 47.3216 107.319 47.3668C107.251 47.4107 107.196 47.4754 107.156 47.5607ZM107.808 47.7236C107.837 47.7559 107.852 47.8011 107.852 47.8593C107.852 47.9174 107.837 47.9627 107.808 47.995C107.778 48.0273 107.74 48.0435 107.693 48.0435C107.647 48.0435 107.609 48.0273 107.579 47.995C107.549 47.9627 107.534 47.9174 107.534 47.8593C107.534 47.8011 107.549 47.7559 107.579 47.7236C107.609 47.6912 107.647 47.6751 107.693 47.6751C107.74 47.6751 107.778 47.6912 107.808 47.7236ZM108.641 47.5626C108.594 47.6466 108.571 47.7455 108.571 47.8593C108.571 47.973 108.594 48.0726 108.641 48.1579C108.689 48.2419 108.754 48.3065 108.839 48.3518C108.924 48.397 109.021 48.4196 109.129 48.4196C109.272 48.4196 109.391 48.3796 109.488 48.2994C109.586 48.2193 109.648 48.1081 109.674 47.9659H109.219C109.202 48.0228 109.169 48.0512 109.12 48.0512C109.085 48.0512 109.057 48.0351 109.036 48.0028C109.017 47.9704 109.007 47.9226 109.007 47.8593C109.007 47.7959 109.017 47.7481 109.036 47.7158C109.057 47.6835 109.085 47.6673 109.12 47.6673C109.169 47.6673 109.202 47.6958 109.219 47.7526H109.674C109.648 47.6105 109.586 47.4993 109.488 47.4191C109.391 47.339 109.272 47.2989 109.129 47.2989C109.021 47.2989 108.924 47.3216 108.839 47.3668C108.754 47.412 108.689 47.4773 108.641 47.5626ZM111.019 47.9349C111.022 47.9078 111.024 47.8793 111.024 47.8496C111.024 47.7371 111 47.6395 110.953 47.5568C110.906 47.4741 110.84 47.4107 110.755 47.3668C110.671 47.3216 110.575 47.2989 110.466 47.2989C110.357 47.2989 110.26 47.3216 110.175 47.3668C110.091 47.412 110.025 47.4773 109.977 47.5626C109.931 47.6466 109.908 47.7455 109.908 47.8593C109.908 47.973 109.931 48.0726 109.977 48.1579C110.025 48.2419 110.091 48.3065 110.175 48.3518C110.26 48.397 110.357 48.4196 110.466 48.4196C110.556 48.4196 110.639 48.4022 110.714 48.3673C110.79 48.3311 110.853 48.2826 110.902 48.2219C110.953 48.1598 110.986 48.09 111.001 48.0125H110.545C110.525 48.0551 110.491 48.0764 110.445 48.0764C110.372 48.0764 110.333 48.0293 110.326 47.9349H111.019ZM110.553 47.6654C110.576 47.6835 110.588 47.7106 110.588 47.7468H110.332C110.345 47.6731 110.39 47.6363 110.466 47.6363C110.501 47.6363 110.53 47.646 110.553 47.6654Z" fill="white"/>
<defs>
<filter id="filter0_d_408_810" x="58.3332" y="0.87191" width="99.6473" height="105.22" filterUnits="userSpaceOnUse" color-interpolation-filters="sRGB">
<feFlood flood-opacity="0" result="BackgroundImageFix"/>
<feColorMatrix in="SourceAlpha" type="matrix" values="0 0 0 0 0 0 0 0 0 0 0 0 0 0 0 0 0 0 127 0" result="hardAlpha"/>
<feOffset dy="5.86469"/>
<feGaussianBlur stdDeviation="8.62455"/>
<feComposite in2="hardAlpha" operator="out"/>
<feColorMatrix type="matrix" values="0 0 0 0 0.0633072 0 0 0 0 0.00230903 0 0 0 0 0.0791667 0 0 0 0.6 0"/>
<feBlend mode="normal" in2="BackgroundImageFix" result="effect1_dropShadow_408_810"/>
<feBlend mode="normal" in="SourceGraphic" in2="effect1_dropShadow_408_810" result="shape"/>
</filter>
<linearGradient id="paint0_linear_408_810" x1="-0.222392" y1="48.3863" x2="30.7447" y2="54.0915" gradientUnits="userSpaceOnUse">
<stop stop-color="#E8AA20"/>
<stop offset="0.649132" stop-color="#F7DF89"/>
<stop offset="1" stop-color="#E09200"/>
</linearGradient>
<linearGradient id="paint1_linear_408_810" x1="34.9239" y1="48.3863" x2="70.6289" y2="56.0608" gradientUnits="userSpaceOnUse">
<stop stop-color="#E8AA20"/>
<stop offset="0.649132" stop-color="#F7DF89"/>
<stop offset="1" stop-color="#E09200"/>
</linearGradient>
<linearGradient id="paint2_linear_408_810" x1="145.519" y1="48.3858" x2="179.349" y2="55.2419" gradientUnits="userSpaceOnUse">
<stop stop-color="#E8AA20"/>
<stop offset="0.649132" stop-color="#F7DF89"/>
<stop offset="1" stop-color="#E09200"/>
</linearGradient>
<linearGradient id="paint3_linear_408_810" x1="74.7478" y1="45.3409" x2="135.998" y2="67.8638" gradientUnits="userSpaceOnUse">
<stop stop-color="#E8AA20"/>
<stop offset="0.649132" stop-color="#F7DF89"/>
<stop offset="1" stop-color="#E09200"/>
</linearGradient>
</defs>
</svg>
