<svg width="21" height="19" viewBox="0 0 21 19" fill="none" xmlns="http://www.w3.org/2000/svg">
<path fill-rule="evenodd" clip-rule="evenodd" d="M5.67398 1.05801C5.8003 0.986188 5.94747 0.930925 6.10547 0.892376L6.10547 15.231C5.94747 15.2703 5.8003 15.3262 5.67398 15.398L3.32398 16.738C1.68398 17.678 0.333984 16.898 0.333984 14.998V5.26801C0.333984 4.63801 0.783984 3.85801 1.34398 3.53801L5.67398 1.05801ZM7.56398 15.348C7.4284 15.2789 7.27188 15.2295 7.10547 15.199L7.10547 0.863281C7.27188 0.893313 7.4284 0.941502 7.56398 1.00801L12.814 3.62801C12.9503 3.69748 13.1079 3.74709 13.2754 3.77752L13.2754 18.1233C13.1079 18.0933 12.9503 18.0449 12.814 17.978L7.56398 15.348ZM14.2754 18.0929C14.4323 18.0544 14.5784 17.9994 14.704 17.928L19.034 15.448C19.584 15.128 20.044 14.348 20.044 13.708V3.97801C20.044 2.07801 18.694 1.29801 17.054 2.23801L14.704 3.57801C14.5784 3.6494 14.4323 3.70503 14.2754 3.74431L14.2754 18.0929Z" fill="#A74BFF"/>
</svg>
