<svg width="22" height="19" viewBox="0 0 22 19" fill="none" xmlns="http://www.w3.org/2000/svg">
<path d="M1.33398 5.44599V15.176C1.33398 17.076 2.68398 17.856 4.32398 16.916L6.67398 15.576C7.18398 15.286 8.03398 15.256 8.56398 15.526L13.814 18.156C14.344 18.416 15.194 18.396 15.704 18.106L20.034 15.626C20.584 15.306 21.044 14.526 21.044 13.886V4.15599C21.044 2.25599 19.694 1.47599 18.054 2.41599L15.704 3.75599C15.194 4.04599 14.344 4.07599 13.814 3.80599L8.56398 1.18599C8.03398 0.925991 7.18398 0.945991 6.67398 1.23599L2.34398 3.71599C1.78398 4.03599 1.33398 4.81599 1.33398 5.44599Z" stroke="#10011C" stroke-linecap="round" stroke-linejoin="round"/>
<path d="M7.60547 1.66602V14.666" stroke="#10011C" stroke-linecap="round" stroke-linejoin="round"/>
<path d="M14.7754 4.28516V17.6652" stroke="#10011C" stroke-linecap="round" stroke-linejoin="round"/>
</svg>
