<svg width="20" height="22" viewBox="0 0 20 22" fill="none" xmlns="http://www.w3.org/2000/svg">
<path d="M5.58594 0.546875V3.68973" stroke="#944FD6" stroke-miterlimit="10" stroke-linecap="round" stroke-linejoin="round"/>
<path d="M13.9668 0.546875V3.68973" stroke="#944FD6" stroke-miterlimit="10" stroke-linecap="round" stroke-linejoin="round"/>
<path fill-rule="evenodd" clip-rule="evenodd" d="M19.7129 18.4902C19.7129 20.3984 18.166 21.9453 16.2578 21.9453C14.3496 21.9453 12.8027 20.3984 12.8027 18.4902C12.8027 16.582 14.3496 15.0352 16.2578 15.0352C18.166 15.0352 19.7129 16.582 19.7129 18.4902ZM15.9384 17.2365C15.9384 17.1107 15.8364 17.0087 15.7106 17.0087C15.5848 17.0087 15.4828 17.1107 15.4828 17.2365V18.4073C15.4828 18.5432 15.5261 18.68 15.587 18.7937C15.6475 18.9066 15.7373 19.0186 15.8518 19.0909L15.8521 19.0911L16.6836 19.619C16.7898 19.6865 16.9306 19.655 16.998 19.5488C17.0654 19.4426 17.034 19.3019 16.9278 19.2344L16.0957 18.7062L16.0951 18.7058C16.0649 18.6867 16.0232 18.6432 15.9885 18.5785C15.9542 18.5143 15.9384 18.4513 15.9384 18.4073V17.2365Z" fill="#A74BFF"/>
<path fill-rule="evenodd" clip-rule="evenodd" d="M19.2054 7.97461L0.348267 7.97461V16.262C0.348267 19.4049 1.9197 21.5001 5.58636 21.5001H13.2912C12.4208 20.7322 11.8717 19.6085 11.8717 18.3565C11.8717 16.0422 13.7478 14.166 16.0622 14.166C17.314 14.166 18.4376 14.7149 19.2054 15.5851V7.97461ZM19.1974 6.97461L0.356287 6.97461C0.481156 4.04547 2.07059 2.11914 5.58636 2.11914H13.9673C17.4831 2.11914 19.0725 4.04547 19.1974 6.97461ZM8.77257 12.8031C8.77257 12.2508 9.22029 11.8031 9.77257 11.8031H9.78198C10.3343 11.8031 10.782 12.2508 10.782 12.8031C10.782 13.3554 10.3343 13.8031 9.78198 13.8031H9.77257C9.22029 13.8031 8.77257 13.3554 8.77257 12.8031ZM5.89562 11.8031C5.34333 11.8031 4.89562 12.2508 4.89562 12.8031C4.89562 13.3554 5.34333 13.8031 5.89562 13.8031H5.90503C6.45731 13.8031 6.90503 13.3554 6.90503 12.8031C6.90503 12.2508 6.45731 11.8031 5.90503 11.8031H5.89562ZM4.89562 15.9476C4.89562 15.3954 5.34333 14.9476 5.89562 14.9476H5.90503C6.45731 14.9476 6.90503 15.3954 6.90503 15.9476C6.90503 16.4999 6.45731 16.9476 5.90503 16.9476H5.89562C5.34333 16.9476 4.89562 16.4999 4.89562 15.9476Z" fill="#A74BFF"/>
</svg>
