<svg width="22" height="24" viewBox="0 0 22 24" fill="none" xmlns="http://www.w3.org/2000/svg">
<g opacity="0.75">
<path d="M6.28308 0.666016V3.80887" stroke="#10011C" stroke-miterlimit="10" stroke-linecap="round" stroke-linejoin="round"/>
<path d="M14.6641 0.666016V3.80887" stroke="#10011C" stroke-miterlimit="10" stroke-linecap="round" stroke-linejoin="round"/>
<path d="M1.56873 8.09375H19.3782" stroke="#10011C" stroke-miterlimit="10" stroke-linecap="round" stroke-linejoin="round"/>
<path d="M16.7592 22.6661C19.0735 22.6661 20.9497 20.79 20.9497 18.4756C20.9497 16.1613 19.0735 14.2852 16.7592 14.2852C14.4449 14.2852 12.5687 16.1613 12.5687 18.4756C12.5687 20.79 14.4449 22.6661 16.7592 22.6661Z" stroke="#10011C" stroke-miterlimit="10" stroke-linecap="round" stroke-linejoin="round"/>
<path d="M19.9021 7.47638V15.7106C19.1373 14.8411 18.0163 14.2859 16.7592 14.2859C14.444 14.2859 12.5687 16.1611 12.5687 18.4764C12.5687 19.2621 12.7887 20.0059 13.1764 20.6345C13.3964 21.0116 13.6792 21.3469 14.004 21.6192H6.28302C2.61635 21.6192 1.04492 19.524 1.04492 16.3811V7.47638C1.04492 4.33352 2.61635 2.23828 6.28302 2.23828H14.664C18.3306 2.23828 19.9021 4.33352 19.9021 7.47638Z" stroke="#10011C" stroke-miterlimit="10" stroke-linecap="round" stroke-linejoin="round"/>
<path d="M10.4687 12.9222H10.4781" stroke="#10011C" stroke-width="2" stroke-linecap="round" stroke-linejoin="round"/>
<path d="M6.59142 12.9222H6.60083" stroke="#10011C" stroke-width="2" stroke-linecap="round" stroke-linejoin="round"/>
<path d="M6.59142 16.0668H6.60083" stroke="#10011C" stroke-width="2" stroke-linecap="round" stroke-linejoin="round"/>
<path d="M17.5249 19.689L16.6117 19.1092C16.4526 19.0089 16.323 18.7676 16.323 18.5701V17.2852" stroke="#10011C" stroke-linecap="round" stroke-linejoin="round"/>
</g>
</svg>
