<svg width="14" height="21" viewBox="0 0 14 21" fill="none" xmlns="http://www.w3.org/2000/svg">
<path d="M7.10977 9.35633C7.00977 9.34633 6.88977 9.34633 6.77977 9.35633C4.39977 9.27633 2.50977 7.32633 2.50977 4.92633C2.50977 2.47633 4.48977 0.486328 6.94977 0.486328C9.39977 0.486328 11.3898 2.47633 11.3898 4.92633C11.3798 7.32633 9.48977 9.27633 7.10977 9.35633Z" fill="#A74BFF"/>
<path d="M2.10992 13.0463C-0.310078 14.6663 -0.310078 17.3063 2.10992 18.9163C4.85992 20.7563 9.36992 20.7563 12.1199 18.9163C14.5399 17.2963 14.5399 14.6563 12.1199 13.0463C9.37992 11.2163 4.86992 11.2163 2.10992 13.0463Z" fill="#A74BFF"/>
</svg>
