<svg width="16" height="23" viewBox="0 0 16 23" fill="none" xmlns="http://www.w3.org/2000/svg">
<path d="M8.10977 10.536C8.00977 10.526 7.88977 10.526 7.77977 10.536C5.39977 10.456 3.50977 8.50602 3.50977 6.10602C3.50977 3.65602 5.48977 1.66602 7.94977 1.66602C10.3998 1.66602 12.3898 3.65602 12.3898 6.10602C12.3798 8.50602 10.4898 10.456 8.10977 10.536Z" stroke="#10011C" stroke-width="1.5" stroke-linecap="round" stroke-linejoin="round"/>
<path d="M3.10992 14.226C0.689922 15.846 0.689922 18.486 3.10992 20.096C5.85992 21.936 10.3699 21.936 13.1199 20.096C15.5399 18.476 15.5399 15.836 13.1199 14.226C10.3799 12.396 5.86992 12.396 3.10992 14.226Z" stroke="#10011C" stroke-width="1.5" stroke-linecap="round" stroke-linejoin="round"/>
</svg>
