<svg width="161" height="54" viewBox="0 0 161 54" fill="none" xmlns="http://www.w3.org/2000/svg">
<rect width="161" height="54" fill="#F5F5F5"/>
<g clip-path="url(#clip0_0_1)">
<rect x="-19.9651" y="-59" width="375" height="848" rx="40" fill="white"/>
<path d="M25.584 53.9954C39.6944 53.9954 51.1331 42.5567 51.1331 28.4464C51.1331 14.336 39.6944 2.89728 25.584 2.89728C11.4736 2.89728 0.0349121 14.336 0.0349121 28.4464C0.0349121 42.5567 11.4736 53.9954 25.584 53.9954Z" fill="#FCE8E3"/>
<path d="M32.3445 25.0822H18.8285V40.3512H32.3445V25.0822Z" fill="#E2988F"/>
<path d="M38.8255 14.3628C38.0794 12.5777 36.5553 13.4565 36.5553 13.4565C37.4341 5.35057 33.3147 0 25.5841 0C17.8535 0 13.7341 5.35057 14.6129 13.4565C14.6129 13.4565 13.0888 12.5823 12.3427 14.3628C11.5967 16.1478 12.9606 20.3267 13.8028 21.6586C14.645 22.9859 16.1371 23.9929 16.1371 23.9929C16.1371 23.9929 16.2332 25.485 16.6222 26.5194C17.0113 27.5584 21.419 32.3277 22.7143 33.0554C24.4124 34.0578 26.9206 34.0578 28.4448 33.0554C29.7401 32.3277 34.1478 27.5584 34.5368 26.5194C34.9259 25.4804 35.022 23.9929 35.022 23.9929C35.022 23.9929 36.5141 22.9859 37.3563 21.6586C38.2076 20.3312 39.5716 16.1478 38.8255 14.3628Z" fill="#E2988F"/>
<path d="M25.6526 33.9754C24.5907 33.9754 23.506 33.7191 22.6318 33.2065C21.8491 32.7671 20.0411 30.9591 18.7001 29.467L18.9564 29.2382C20.3249 30.7577 22.0871 32.5062 22.8057 32.909C24.4488 33.8747 26.8884 33.8793 28.3576 32.9135C29.09 32.5016 30.8521 30.7532 32.2161 29.2382L32.4724 29.467C31.1268 30.9591 29.3234 32.7625 28.5361 33.2065C27.7535 33.7191 26.7145 33.9754 25.6526 33.9754Z" fill="#C46966"/>
<path d="M15.8817 20.4924L15.541 20.5344L15.9696 24.0096L16.3103 23.9676L15.8817 20.4924Z" fill="#C46966"/>
<path d="M35.2627 20.4989L34.876 23.9744L35.2172 24.0124L35.6039 20.5369L35.2627 20.4989Z" fill="#C46966"/>
<path d="M13.345 18.3723C13.2718 18.1114 12.6676 15.7863 13.5052 15.1501C13.7844 14.9716 14.0087 14.9899 14.1506 15.0356C14.5763 15.1729 14.7914 15.7039 14.8143 15.7634L14.4939 15.887C14.4481 15.768 14.2742 15.4384 14.0453 15.3652C13.9401 15.3286 13.8256 15.356 13.7021 15.4338C13.2215 15.8 13.4274 17.3791 13.6746 18.2853L13.345 18.3723Z" fill="#C46966"/>
<path d="M37.8276 18.3723L37.4981 18.2808C37.7452 17.3745 37.9558 15.7954 37.4615 15.4247C37.347 15.3515 37.2326 15.3286 37.1273 15.3606C36.8527 15.4522 36.6788 15.8778 36.6788 15.8824L36.3584 15.7588C36.3813 15.6993 36.5964 15.173 37.0221 15.0311C37.164 14.9853 37.3928 14.967 37.6583 15.1409C38.5096 15.7863 37.9009 18.1114 37.8276 18.3723Z" fill="#C46966"/>
<path d="M15.7113 17.7178C18.0044 17.7315 16.2697 10.3305 18.0685 8.53625C18.9839 7.62542 20.3158 7.77646 21.4601 8.06482C22.792 8.40352 24.1697 8.8658 25.5749 8.90242C27.0624 8.94361 28.4767 8.39437 29.9048 8.05109C31.0124 7.78104 32.2162 7.66204 33.095 8.53625C34.8937 10.3259 33.159 17.727 35.4521 17.7178C35.2919 16.006 35.2874 14.134 36.546 13.4566C37.4248 5.35063 33.3055 0.00463867 25.5749 0.00463867C17.8488 0.00463867 13.7249 5.35521 14.6037 13.4612C15.6381 14.1203 15.8715 15.9282 15.7113 17.7178Z" fill="#4C224B"/>
<path d="M47.4213 41.7198C40.2079 38.5022 32.3445 37.3625 32.3445 37.3625C28.7378 41.1248 22.0141 41.1752 18.8285 37.3625C18.8285 37.3625 10.9651 38.5022 3.75171 41.7198C8.23722 49.0797 16.3386 54.0001 25.5888 54.0001C34.8344 53.9955 42.9358 49.0797 47.4213 41.7198Z" fill="#F4BA5D"/>
<path d="M17.0022 37.6188L18.8284 34.3416L24.742 39.651L21.1215 43.6147L17.0022 37.6188Z" fill="white"/>
<path d="M34.1661 37.6188L32.3398 34.3416L26.4263 39.651L30.0421 43.6147L34.1661 37.6188Z" fill="white"/>
<path d="M70.0409 21L67.8849 17.192H66.9609V21H65.0009V11.228H68.6689C69.4249 11.228 70.0689 11.3633 70.6009 11.634C71.1329 11.8953 71.5296 12.2547 71.7909 12.712C72.0616 13.16 72.1969 13.664 72.1969 14.224C72.1969 14.868 72.0102 15.4513 71.6369 15.974C71.2636 16.4873 70.7082 16.842 69.9709 17.038L72.3089 21H70.0409ZM66.9609 15.722H68.5989C69.1309 15.722 69.5276 15.596 69.7889 15.344C70.0502 15.0827 70.1809 14.7233 70.1809 14.266C70.1809 13.818 70.0502 13.4727 69.7889 13.23C69.5276 12.978 69.1309 12.852 68.5989 12.852H66.9609V15.722ZM73.4657 17.094C73.4657 16.31 73.6197 15.6147 73.9277 15.008C74.245 14.4013 74.6697 13.9347 75.2017 13.608C75.743 13.2813 76.345 13.118 77.0077 13.118C77.5863 13.118 78.0903 13.2347 78.5197 13.468C78.9583 13.7013 79.3083 13.9953 79.5697 14.35V13.244H81.5437V21H79.5697V19.866C79.3177 20.23 78.9677 20.5333 78.5197 20.776C78.081 21.0093 77.5723 21.126 76.9937 21.126C76.3403 21.126 75.743 20.958 75.2017 20.622C74.6697 20.286 74.245 19.8147 73.9277 19.208C73.6197 18.592 73.4657 17.8873 73.4657 17.094ZM79.5697 17.122C79.5697 16.646 79.4763 16.24 79.2897 15.904C79.103 15.5587 78.851 15.2973 78.5337 15.12C78.2163 14.9333 77.8757 14.84 77.5117 14.84C77.1477 14.84 76.8117 14.9287 76.5037 15.106C76.1957 15.2833 75.9437 15.5447 75.7477 15.89C75.561 16.226 75.4677 16.6273 75.4677 17.094C75.4677 17.5607 75.561 17.9713 75.7477 18.326C75.9437 18.6713 76.1957 18.9373 76.5037 19.124C76.821 19.3107 77.157 19.404 77.5117 19.404C77.8757 19.404 78.2163 19.3153 78.5337 19.138C78.851 18.9513 79.103 18.69 79.2897 18.354C79.4763 18.0087 79.5697 17.598 79.5697 17.122ZM87.8259 13.132C88.4139 13.132 88.9366 13.2627 89.3939 13.524C89.8513 13.776 90.2059 14.154 90.4579 14.658C90.7193 15.1527 90.8499 15.75 90.8499 16.45V21H88.8899V16.716C88.8899 16.1 88.7359 15.6287 88.4279 15.302C88.1199 14.966 87.6999 14.798 87.1679 14.798C86.6266 14.798 86.1973 14.966 85.8799 15.302C85.5719 15.6287 85.4179 16.1 85.4179 16.716V21H83.4579V10.64H85.4179V14.21C85.6699 13.874 86.0059 13.6127 86.4259 13.426C86.8459 13.23 87.3126 13.132 87.8259 13.132ZM100.036 13.244V21H98.0618V20.02C97.8098 20.356 97.4785 20.622 97.0678 20.818C96.6665 21.0047 96.2278 21.098 95.7518 21.098C95.1451 21.098 94.6085 20.972 94.1418 20.72C93.6751 20.4587 93.3065 20.0807 93.0358 19.586C92.7745 19.082 92.6438 18.4847 92.6438 17.794V13.244H94.6038V17.514C94.6038 18.13 94.7578 18.606 95.0658 18.942C95.3738 19.2687 95.7938 19.432 96.3258 19.432C96.8671 19.432 97.2918 19.2687 97.5998 18.942C97.9078 18.606 98.0618 18.13 98.0618 17.514V13.244H100.036ZM114.084 11.228L110.5 21H108.12L104.536 11.228H106.636L109.324 18.998L111.998 11.228H114.084ZM116.253 12.32C115.907 12.32 115.618 12.2127 115.385 11.998C115.161 11.774 115.049 11.4987 115.049 11.172C115.049 10.8453 115.161 10.5747 115.385 10.36C115.618 10.136 115.907 10.024 116.253 10.024C116.598 10.024 116.883 10.136 117.107 10.36C117.34 10.5747 117.457 10.8453 117.457 11.172C117.457 11.4987 117.34 11.774 117.107 11.998C116.883 12.2127 116.598 12.32 116.253 12.32ZM117.219 13.244V21H115.259V13.244H117.219ZM122.123 21.126C121.489 21.126 120.919 21.014 120.415 20.79C119.911 20.5567 119.51 20.244 119.211 19.852C118.922 19.46 118.763 19.026 118.735 18.55H120.709C120.747 18.8487 120.891 19.096 121.143 19.292C121.405 19.488 121.727 19.586 122.109 19.586C122.483 19.586 122.772 19.5113 122.977 19.362C123.192 19.2127 123.299 19.0213 123.299 18.788C123.299 18.536 123.169 18.3493 122.907 18.228C122.655 18.0973 122.249 17.9573 121.689 17.808C121.111 17.668 120.635 17.5233 120.261 17.374C119.897 17.2247 119.58 16.996 119.309 16.688C119.048 16.38 118.917 15.9647 118.917 15.442C118.917 15.0127 119.039 14.6207 119.281 14.266C119.533 13.9113 119.888 13.6313 120.345 13.426C120.812 13.2207 121.358 13.118 121.983 13.118C122.907 13.118 123.645 13.3513 124.195 13.818C124.746 14.2753 125.049 14.896 125.105 15.68H123.229C123.201 15.372 123.071 15.1293 122.837 14.952C122.613 14.7653 122.31 14.672 121.927 14.672C121.573 14.672 121.297 14.7373 121.101 14.868C120.915 14.9987 120.821 15.1807 120.821 15.414C120.821 15.6753 120.952 15.876 121.213 16.016C121.475 16.1467 121.881 16.282 122.431 16.422C122.991 16.562 123.453 16.7067 123.817 16.856C124.181 17.0053 124.494 17.2387 124.755 17.556C125.026 17.864 125.166 18.2747 125.175 18.788C125.175 19.236 125.049 19.6373 124.797 19.992C124.555 20.3467 124.2 20.6267 123.733 20.832C123.276 21.028 122.739 21.126 122.123 21.126ZM131.152 13.132C131.74 13.132 132.263 13.2627 132.72 13.524C133.177 13.776 133.532 14.154 133.784 14.658C134.045 15.1527 134.176 15.75 134.176 16.45V21H132.216V16.716C132.216 16.1 132.062 15.6287 131.754 15.302C131.446 14.966 131.026 14.798 130.494 14.798C129.953 14.798 129.523 14.966 129.206 15.302C128.898 15.6287 128.744 16.1 128.744 16.716V21H126.784V10.64H128.744V14.21C128.996 13.874 129.332 13.6127 129.752 13.426C130.172 13.23 130.639 13.132 131.152 13.132Z" fill="#A74BFF"/>
<path opacity="0.5" d="M90.6149 34.388C90.4389 33.5 89.8909 33.056 88.9709 33.056C88.2589 33.056 87.7269 33.332 87.3749 33.884C87.0229 34.428 86.8509 35.328 86.8589 36.584C87.0429 36.168 87.3469 35.844 87.7709 35.612C88.2029 35.372 88.6829 35.252 89.2109 35.252C90.0349 35.252 90.6909 35.508 91.1789 36.02C91.6749 36.532 91.9229 37.24 91.9229 38.144C91.9229 38.688 91.8149 39.176 91.5989 39.608C91.3909 40.04 91.0709 40.384 90.6389 40.64C90.2149 40.896 89.6989 41.024 89.0909 41.024C88.2669 41.024 87.6229 40.84 87.1589 40.472C86.6949 40.104 86.3709 39.596 86.1869 38.948C86.0029 38.3 85.9109 37.5 85.9109 36.548C85.9109 33.612 86.9349 32.144 88.9829 32.144C89.7669 32.144 90.3829 32.356 90.8309 32.78C91.2789 33.204 91.5429 33.74 91.6229 34.388H90.6149ZM88.9829 36.176C88.6389 36.176 88.3149 36.248 88.0109 36.392C87.7069 36.528 87.4589 36.74 87.2669 37.028C87.0829 37.308 86.9909 37.652 86.9909 38.06C86.9909 38.668 87.1669 39.164 87.5189 39.548C87.8709 39.924 88.3749 40.112 89.0309 40.112C89.5909 40.112 90.0349 39.94 90.3629 39.596C90.6989 39.244 90.8669 38.772 90.8669 38.18C90.8669 37.556 90.7069 37.068 90.3869 36.716C90.0669 36.356 89.5989 36.176 88.9829 36.176ZM93.3721 34.508C93.4281 33.772 93.7121 33.196 94.2241 32.78C94.7361 32.364 95.4001 32.156 96.2161 32.156C96.7601 32.156 97.2281 32.256 97.6201 32.456C98.0201 32.648 98.3201 32.912 98.5201 33.248C98.7281 33.584 98.8321 33.964 98.8321 34.388C98.8321 34.884 98.6881 35.312 98.4001 35.672C98.1201 36.032 97.7521 36.264 97.2961 36.368V36.428C97.8161 36.556 98.2281 36.808 98.5321 37.184C98.8361 37.56 98.9881 38.052 98.9881 38.66C98.9881 39.116 98.8841 39.528 98.6761 39.896C98.4681 40.256 98.1561 40.54 97.7401 40.748C97.3241 40.956 96.8241 41.06 96.2401 41.06C95.3921 41.06 94.6961 40.84 94.1521 40.4C93.6081 39.952 93.3041 39.32 93.2401 38.504H94.2961C94.3521 38.984 94.5481 39.376 94.8841 39.68C95.2201 39.984 95.6681 40.136 96.2281 40.136C96.7881 40.136 97.2121 39.992 97.5001 39.704C97.7961 39.408 97.9441 39.028 97.9441 38.564C97.9441 37.964 97.7441 37.532 97.3441 37.268C96.9441 37.004 96.3401 36.872 95.5321 36.872H95.2561V35.96H95.5441C96.2801 35.952 96.8361 35.832 97.2121 35.6C97.5881 35.36 97.7761 34.992 97.7761 34.496C97.7761 34.072 97.6361 33.732 97.3561 33.476C97.0841 33.22 96.6921 33.092 96.1801 33.092C95.6841 33.092 95.2841 33.22 94.9801 33.476C94.6761 33.732 94.4961 34.076 94.4401 34.508H93.3721ZM101.867 38.672C101.947 39.128 102.131 39.48 102.419 39.728C102.715 39.976 103.111 40.1 103.607 40.1C104.271 40.1 104.759 39.84 105.071 39.32C105.391 38.8 105.543 37.924 105.527 36.692C105.359 37.052 105.079 37.336 104.687 37.544C104.295 37.744 103.859 37.844 103.379 37.844C102.843 37.844 102.363 37.736 101.939 37.52C101.523 37.296 101.195 36.972 100.955 36.548C100.715 36.124 100.595 35.612 100.595 35.012C100.595 34.156 100.843 33.468 101.339 32.948C101.835 32.42 102.539 32.156 103.451 32.156C104.571 32.156 105.355 32.52 105.803 33.248C106.259 33.976 106.487 35.06 106.487 36.5C106.487 37.508 106.395 38.34 106.211 38.996C106.035 39.652 105.731 40.152 105.299 40.496C104.875 40.84 104.291 41.012 103.547 41.012C102.731 41.012 102.095 40.792 101.639 40.352C101.183 39.912 100.923 39.352 100.859 38.672H101.867ZM103.559 36.92C104.095 36.92 104.535 36.756 104.879 36.428C105.223 36.092 105.395 35.64 105.395 35.072C105.395 34.472 105.227 33.988 104.891 33.62C104.555 33.252 104.083 33.068 103.475 33.068C102.915 33.068 102.467 33.244 102.131 33.596C101.803 33.948 101.639 34.412 101.639 34.988C101.639 35.572 101.803 36.04 102.131 36.392C102.459 36.744 102.935 36.92 103.559 36.92ZM107.733 33.32V32.324H109.989V41H108.885V33.32H107.733ZM116.336 33.524V36.32H119.384V37.22H116.336V40.1H119.744V41H115.244V32.624H119.744V33.524H116.336ZM122.488 32.12V41H121.396V32.12H122.488ZM127.062 34.316C127.63 34.316 128.126 34.44 128.55 34.688C128.982 34.936 129.302 35.248 129.51 35.624V34.424H130.614V41.144C130.614 41.744 130.486 42.276 130.23 42.74C129.974 43.212 129.606 43.58 129.126 43.844C128.654 44.108 128.102 44.24 127.47 44.24C126.606 44.24 125.886 44.036 125.31 43.628C124.734 43.22 124.394 42.664 124.29 41.96H125.37C125.49 42.36 125.738 42.68 126.114 42.92C126.49 43.168 126.942 43.292 127.47 43.292C128.07 43.292 128.558 43.104 128.934 42.728C129.318 42.352 129.51 41.824 129.51 41.144V39.764C129.294 40.148 128.974 40.468 128.55 40.724C128.126 40.98 127.63 41.108 127.062 41.108C126.478 41.108 125.946 40.964 125.466 40.676C124.994 40.388 124.622 39.984 124.35 39.464C124.078 38.944 123.942 38.352 123.942 37.688C123.942 37.016 124.078 36.428 124.35 35.924C124.622 35.412 124.994 35.016 125.466 34.736C125.946 34.456 126.478 34.316 127.062 34.316ZM129.51 37.7C129.51 37.204 129.41 36.772 129.21 36.404C129.01 36.036 128.738 35.756 128.394 35.564C128.058 35.364 127.686 35.264 127.278 35.264C126.87 35.264 126.498 35.36 126.162 35.552C125.826 35.744 125.558 36.024 125.358 36.392C125.158 36.76 125.058 37.192 125.058 37.688C125.058 38.192 125.158 38.632 125.358 39.008C125.558 39.376 125.826 39.66 126.162 39.86C126.498 40.052 126.87 40.148 127.278 40.148C127.686 40.148 128.058 40.052 128.394 39.86C128.738 39.66 129.01 39.376 129.21 39.008C129.41 38.632 129.51 38.196 129.51 37.7ZM133.023 33.356C132.815 33.356 132.639 33.284 132.495 33.14C132.351 32.996 132.279 32.82 132.279 32.612C132.279 32.404 132.351 32.228 132.495 32.084C132.639 31.94 132.815 31.868 133.023 31.868C133.223 31.868 133.391 31.94 133.527 32.084C133.671 32.228 133.743 32.404 133.743 32.612C133.743 32.82 133.671 32.996 133.527 33.14C133.391 33.284 133.223 33.356 133.023 33.356ZM133.551 34.424V41H132.459V34.424H133.551ZM138.616 34.304C139.416 34.304 140.064 34.548 140.56 35.036C141.056 35.516 141.304 36.212 141.304 37.124V41H140.224V37.28C140.224 36.624 140.06 36.124 139.732 35.78C139.404 35.428 138.956 35.252 138.388 35.252C137.812 35.252 137.352 35.432 137.008 35.792C136.672 36.152 136.504 36.676 136.504 37.364V41H135.412V34.424H136.504V35.36C136.72 35.024 137.012 34.764 137.38 34.58C137.756 34.396 138.168 34.304 138.616 34.304ZM148.939 41.084C148.387 41.084 147.891 40.988 147.451 40.796C147.019 40.596 146.679 40.324 146.431 39.98C146.183 39.628 146.055 39.224 146.047 38.768H147.211C147.251 39.16 147.411 39.492 147.691 39.764C147.979 40.028 148.395 40.16 148.939 40.16C149.459 40.16 149.867 40.032 150.163 39.776C150.467 39.512 150.619 39.176 150.619 38.768C150.619 38.448 150.531 38.188 150.355 37.988C150.179 37.788 149.959 37.636 149.695 37.532C149.431 37.428 149.075 37.316 148.627 37.196C148.075 37.052 147.631 36.908 147.295 36.764C146.967 36.62 146.683 36.396 146.443 36.092C146.211 35.78 146.095 35.364 146.095 34.844C146.095 34.388 146.211 33.984 146.443 33.632C146.675 33.28 146.999 33.008 147.415 32.816C147.839 32.624 148.323 32.528 148.867 32.528C149.651 32.528 150.291 32.724 150.787 33.116C151.291 33.508 151.575 34.028 151.639 34.676H150.439C150.399 34.356 150.231 34.076 149.935 33.836C149.639 33.588 149.247 33.464 148.759 33.464C148.303 33.464 147.931 33.584 147.643 33.824C147.355 34.056 147.211 34.384 147.211 34.808C147.211 35.112 147.295 35.36 147.463 35.552C147.639 35.744 147.851 35.892 148.099 35.996C148.355 36.092 148.711 36.204 149.167 36.332C149.719 36.484 150.163 36.636 150.499 36.788C150.835 36.932 151.123 37.16 151.363 37.472C151.603 37.776 151.723 38.192 151.723 38.72C151.723 39.128 151.615 39.512 151.399 39.872C151.183 40.232 150.863 40.524 150.439 40.748C150.015 40.972 149.515 41.084 148.939 41.084ZM154.662 35.324V39.2C154.662 39.52 154.73 39.748 154.866 39.884C155.002 40.012 155.238 40.076 155.574 40.076H156.378V41H155.394C154.786 41 154.33 40.86 154.026 40.58C153.722 40.3 153.57 39.84 153.57 39.2V35.324H152.718V34.424H153.57V32.768H154.662V34.424H156.378V35.324H154.662ZM158.049 41.072C157.841 41.072 157.665 41 157.521 40.856C157.377 40.712 157.305 40.536 157.305 40.328C157.305 40.12 157.377 39.944 157.521 39.8C157.665 39.656 157.841 39.584 158.049 39.584C158.249 39.584 158.417 39.656 158.553 39.8C158.697 39.944 158.769 40.12 158.769 40.328C158.769 40.536 158.697 40.712 158.553 40.856C158.417 41 158.249 41.072 158.049 41.072Z" fill="#10011C"/>
<path d="M73.0349 38.0725C74.3273 38.0725 75.3749 37.0249 75.3749 35.7325C75.3749 34.4402 74.3273 33.3925 73.0349 33.3925C71.7426 33.3925 70.6949 34.4402 70.6949 35.7325C70.6949 37.0249 71.7426 38.0725 73.0349 38.0725Z" stroke="#292D32"/>
<path d="M66.7499 34.3675C68.2274 27.8725 77.8499 27.88 79.3199 34.375C80.1824 38.185 77.8124 41.41 75.7349 43.405C74.2274 44.86 71.8424 44.86 70.3274 43.405C68.2574 41.41 65.8874 38.1775 66.7499 34.3675Z" stroke="#292D32"/>
</g>
<defs>
<clipPath id="clip0_0_1">
<rect x="-19.9651" y="-59" width="375" height="848" rx="40" fill="white"/>
</clipPath>
</defs>
</svg>
