<svg width="77" height="76" viewBox="0 0 77 76" fill="none" xmlns="http://www.w3.org/2000/svg">
<circle cx="38.5354" cy="38.009" r="37.8133" fill="white" fill-opacity="0.3"/>
<path d="M22.8538 45.2531C19.5042 45.2531 17.3459 43.7199 17.1799 41.1223L17.1702 40.966H19.9534L19.9729 41.0735C20.1584 42.1672 21.3206 42.8508 22.9319 42.8508C24.5627 42.8508 25.5881 42.1379 25.5881 41.0637V41.0539C25.5881 40.0969 24.8948 39.6184 23.1467 39.257L21.6624 38.9641C18.8792 38.4074 17.4729 37.0793 17.4729 34.9602V34.9504C17.4729 32.3723 19.719 30.6731 22.844 30.6731C26.1057 30.6731 28.1077 32.3039 28.2444 34.7746L28.2542 34.9602H25.4709L25.4612 34.843C25.3147 33.7395 24.2991 33.0656 22.844 33.0656C21.3303 33.0754 20.4221 33.7688 20.4221 34.7746V34.7844C20.4221 35.6731 21.1448 36.1906 22.7659 36.5129L24.26 36.8156C27.2092 37.4016 28.5374 38.6028 28.5374 40.8195V40.8293C28.5374 43.5344 26.4084 45.2531 22.8538 45.2531ZM31.1975 45.009V30.9172H34.0491V38.7297H34.1077L37.6428 34.5403H40.8752L36.9202 39.0422L41.0706 45.009H37.7795L34.7815 40.7317L34.0491 41.5422V45.009H31.1975ZM44.3459 33.1926C43.4866 33.1926 42.8225 32.5188 42.8225 31.7082C42.8225 30.8977 43.4866 30.2238 44.3459 30.2238C45.2053 30.2238 45.8694 30.8977 45.8694 31.7082C45.8694 32.5188 45.2053 33.1926 44.3459 33.1926ZM42.9202 45.009V34.5403H45.7717V45.009H42.9202ZM48.6858 48.427V34.5403H51.5374V36.3664H51.6057C52.1721 35.0969 53.3147 34.3254 54.7991 34.3254C57.4553 34.3254 59.0764 36.3567 59.0764 39.7649V39.7746C59.0764 43.1731 57.4553 45.2238 54.8381 45.2238C53.344 45.2238 52.1624 44.4621 51.5959 43.2219H51.5374V48.427H48.6858ZM53.8616 42.8606C55.2776 42.8606 56.176 41.6789 56.176 39.7746V39.7649C56.176 37.8508 55.2776 36.6887 53.8616 36.6887C52.4749 36.6887 51.5276 37.8801 51.5276 39.7746V39.7844C51.5276 41.6692 52.4749 42.8606 53.8616 42.8606Z" fill="white"/>
</svg>
