<svg width="376" height="812" viewBox="0 0 376 812" fill="none" xmlns="http://www.w3.org/2000/svg">
<g clip-path="url(#clip0_408_805)">
<rect x="0.0517578" width="375" height="812" rx="30" fill="#1D042B"/>
<g filter="url(#filter0_f_408_805)">
<ellipse cx="187.697" cy="406" rx="103.403" ry="238.643" fill="#51095D"/>
</g>
<path d="M121.017 397.145C122.878 397.581 124.318 398.483 125.335 399.85C126.382 401.187 126.906 402.743 126.906 404.517C126.906 407.221 126.004 409.315 124.201 410.797C122.428 412.251 119.869 412.978 116.525 412.978H100.343V382.097H116.089C119.229 382.097 121.701 382.781 123.504 384.147C125.306 385.514 126.208 387.506 126.208 390.123C126.208 391.926 125.728 393.452 124.768 394.703C123.838 395.924 122.588 396.738 121.017 397.145ZM110.026 394.136H113.777C114.649 394.136 115.289 393.961 115.696 393.612C116.132 393.263 116.35 392.725 116.35 391.998C116.35 391.242 116.132 390.69 115.696 390.341C115.289 389.963 114.649 389.774 113.777 389.774H110.026V394.136ZM114.431 405.214C115.303 405.214 115.943 405.055 116.35 404.735C116.786 404.386 117.005 403.833 117.005 403.077C117.005 401.594 116.147 400.853 114.431 400.853H110.026V405.214H114.431Z" fill="url(#paint0_linear_408_805)"/>
<path d="M150.601 413.284C147.693 413.284 145.018 412.6 142.575 411.234C140.162 409.867 138.243 407.977 136.818 405.563C135.393 403.15 134.681 400.431 134.681 397.407C134.681 394.383 135.393 391.664 136.818 389.251C138.243 386.837 140.162 384.962 142.575 383.624C145.018 382.257 147.693 381.574 150.601 381.574C153.509 381.574 156.169 382.257 158.583 383.624C160.996 384.962 162.901 386.837 164.297 389.251C165.722 391.664 166.434 394.383 166.434 397.407C166.434 400.431 165.722 403.15 164.297 405.563C162.901 407.977 160.982 409.867 158.539 411.234C156.126 412.6 153.48 413.284 150.601 413.284ZM150.601 404.255C152.52 404.255 154.003 403.644 155.05 402.423C156.097 401.173 156.62 399.501 156.62 397.407C156.62 395.284 156.097 393.612 155.05 392.391C154.003 391.141 152.52 390.515 150.601 390.515C148.653 390.515 147.155 391.141 146.108 392.391C145.062 393.612 144.538 395.284 144.538 397.407C144.538 399.501 145.062 401.173 146.108 402.423C147.155 403.644 148.653 404.255 150.601 404.255Z" fill="url(#paint1_linear_408_805)"/>
<path d="M264.791 412.978L255.805 399.587V412.978H246.122V382.097H255.805V395.095L264.66 382.097H275.608L264.965 396.883L276.305 412.978H264.791Z" fill="url(#paint2_linear_408_805)"/>
<path d="M192.557 436.248H276.941L267.258 452.744H182.874L192.557 436.248Z" fill="white"/>
<path d="M210.659 442.2V447.584H209.775V443.897L208.133 447.584H207.521L205.871 443.897V447.584H204.988V442.2H205.941L207.831 446.422L209.713 442.2H210.659ZM217.668 442.2L215.886 445.632V447.584H215.003V445.632L213.214 442.2H214.198L215.445 444.842L216.692 442.2H217.668ZM227.865 443.804C227.865 444.078 227.8 444.336 227.671 444.579C227.542 444.821 227.335 445.02 227.051 445.175C226.767 445.325 226.403 445.4 225.959 445.4H224.983V447.584H224.1V442.2H225.959C226.372 442.2 226.721 442.273 227.005 442.417C227.294 442.557 227.508 442.748 227.648 442.991C227.792 443.233 227.865 443.504 227.865 443.804ZM225.959 444.679C226.295 444.679 226.545 444.604 226.71 444.455C226.876 444.3 226.958 444.083 226.958 443.804C226.958 443.215 226.625 442.921 225.959 442.921H224.983V444.679H225.959ZM231.449 446.872H233.27V447.584H230.566V442.2H231.449V446.872ZM239.113 446.484H236.859L236.472 447.584H235.55L237.479 442.193H238.501L240.43 447.584H239.501L239.113 446.484ZM238.865 445.764L237.99 443.262L237.107 445.764H238.865ZM242.834 444.881C242.834 444.354 242.955 443.881 243.198 443.463C243.446 443.045 243.779 442.719 244.197 442.487C244.621 442.249 245.083 442.131 245.584 442.131C246.157 442.131 246.666 442.273 247.11 442.557C247.559 442.836 247.885 443.233 248.086 443.75H247.025C246.885 443.466 246.692 443.254 246.444 443.114C246.196 442.975 245.909 442.905 245.584 442.905C245.228 442.905 244.91 442.985 244.631 443.145C244.352 443.306 244.133 443.535 243.973 443.835C243.818 444.134 243.74 444.483 243.74 444.881C243.74 445.278 243.818 445.627 243.973 445.927C244.133 446.226 244.352 446.458 244.631 446.624C244.91 446.784 245.228 446.864 245.584 446.864C245.909 446.864 246.196 446.794 246.444 446.655C246.692 446.515 246.885 446.304 247.025 446.019H248.086C247.885 446.536 247.559 446.934 247.11 447.212C246.666 447.491 246.157 447.631 245.584 447.631C245.078 447.631 244.616 447.515 244.197 447.282C243.779 447.045 243.446 446.717 243.198 446.298C242.955 445.88 242.834 445.407 242.834 444.881ZM251.862 442.913V444.493H253.721V445.214H251.862V446.864H253.954V447.584H250.979V442.193H253.954V442.913H251.862Z" fill="#3B0648"/>
<g filter="url(#filter1_d_408_805)">
<path fill-rule="evenodd" clip-rule="evenodd" d="M173.582 392.123C173.582 384.002 176.501 376.569 181.338 370.834V390.518C181.286 391.172 181.259 391.833 181.259 392.5C181.259 406.021 192.22 416.982 205.742 416.982C219.263 416.982 230.224 406.021 230.224 392.5C230.224 378.979 219.263 368.017 205.742 368.017C199.993 368.017 194.707 369.999 190.529 373.316V363.279C195.168 360.714 200.494 359.256 206.157 359.256C224.147 359.256 238.731 373.971 238.731 392.123C238.731 410.274 224.147 424.989 206.157 424.989C202.166 424.989 198.342 424.264 194.808 422.939L177.274 429.978L179.901 411.58C175.929 406.133 173.582 399.404 173.582 392.123Z" fill="url(#paint3_linear_408_805)"/>
</g>
<path fill-rule="evenodd" clip-rule="evenodd" d="M221.655 392.5C221.655 401.289 214.53 408.414 205.741 408.414C196.952 408.414 189.827 401.289 189.827 392.5C189.827 383.711 196.952 376.586 205.741 376.586C214.53 376.586 221.655 383.711 221.655 392.5ZM200.054 380.723C198.134 381.153 197.376 381.634 196.135 383.209L195.562 383.936L195.735 384.09C195.931 384.265 196.119 384.327 196.312 384.278C196.393 384.258 196.613 384.038 196.876 383.713C197.346 383.133 197.724 382.77 198.184 382.458C198.817 382.029 199.309 381.829 200.323 381.591C200.782 381.483 201.078 381.385 201.134 381.323C201.331 381.106 201.277 380.5 201.063 380.511C201.015 380.514 200.56 380.609 200.054 380.723ZM211.219 380.775C211.109 380.988 211.114 381.281 211.231 381.421C211.283 381.484 211.579 381.645 211.888 381.779C213.268 382.378 214.103 383.171 214.862 384.604C215.059 384.974 215.225 385.22 215.312 385.268C215.482 385.363 215.789 385.317 215.969 385.168L216.095 385.064L215.752 384.39C215.245 383.393 214.978 382.958 214.631 382.57C214.222 382.112 213.846 381.793 213.401 381.527C213.001 381.288 211.511 380.615 211.383 380.615C211.338 380.615 211.264 380.687 211.219 380.775ZM198.804 382.695C198.211 382.971 197.905 383.41 197.868 384.038C197.841 384.503 197.959 384.864 198.243 385.187C198.975 386.018 200.255 385.878 200.828 384.902C200.958 384.681 200.975 384.597 200.975 384.165C200.975 383.635 200.878 383.358 200.577 383.033C200.169 382.593 199.356 382.437 198.804 382.695ZM200.961 382.604C200.806 382.634 200.807 382.645 201.003 382.893C201.231 383.18 201.385 383.551 201.421 383.899C201.449 384.172 201.471 384.212 201.716 384.417C201.862 384.539 202.017 384.706 202.059 384.789C202.102 384.871 202.212 385.52 202.304 386.232C202.407 387.026 202.503 387.573 202.553 387.649C202.847 388.102 203.518 388.064 203.749 387.581C203.83 387.411 203.826 387.287 203.695 385.795C203.589 384.585 203.533 384.155 203.465 384.043C203.415 383.961 203.043 383.638 202.638 383.326C201.758 382.649 201.441 382.512 200.961 382.604ZM209.926 382.645C209.58 382.768 208.148 383.614 208.06 383.747C207.971 383.881 207.288 386.761 207.289 387C207.289 387.325 207.639 387.66 207.977 387.66C208.161 387.66 208.446 387.494 208.554 387.324C208.597 387.255 208.78 386.654 208.961 385.988C209.141 385.322 209.324 384.722 209.369 384.654C209.413 384.586 209.609 384.438 209.805 384.323C210.095 384.154 210.161 384.089 210.161 383.977C210.162 383.756 210.406 383.293 210.673 383.008C210.808 382.863 210.919 382.731 210.919 382.715C210.919 382.656 210.573 382.566 210.356 382.568C210.233 382.57 210.04 382.604 209.926 382.645ZM211.418 382.948C211.066 383.124 210.88 383.308 210.687 383.671C210.592 383.849 210.568 383.985 210.568 384.354C210.567 384.77 210.583 384.844 210.735 385.113C210.926 385.452 211.307 385.77 211.64 385.87C212.677 386.181 213.698 385.429 213.698 384.354C213.698 383.175 212.475 382.42 211.418 382.948ZM205.364 384.177C204.953 384.192 204.098 384.3 203.955 384.355C203.85 384.394 203.848 384.422 203.894 385.012C203.921 385.351 203.95 385.636 203.959 385.647C203.968 385.657 204.227 385.624 204.534 385.572C204.978 385.498 205.278 385.485 205.988 385.509C206.479 385.527 206.972 385.564 207.083 385.592C207.278 385.641 207.286 385.637 207.338 385.473C207.394 385.295 207.614 384.436 207.614 384.393C207.614 384.297 206.086 384.15 205.364 384.177ZM197.441 384.986C197.293 385.198 197.208 385.468 197.208 385.727C197.208 385.985 197.666 387.727 197.78 387.899C197.823 387.966 198.477 388.346 199.26 388.761C200.745 389.546 200.885 389.594 201.221 389.42C201.527 389.262 201.643 388.77 201.449 388.455C201.385 388.351 200.983 388.085 200.216 387.638C198.977 386.917 198.9 386.846 198.786 386.339C198.726 386.069 198.694 386.02 198.518 385.931C198.21 385.773 197.874 385.44 197.703 385.122L197.548 384.833L197.441 384.986ZM201.381 385.337C201.128 385.485 200.744 385.742 200.528 385.908C200.064 386.263 199.392 386.88 199.43 386.915C199.445 386.928 199.716 387.073 200.031 387.235L200.604 387.531L200.844 387.323C200.976 387.209 201.298 386.964 201.561 386.778L202.039 386.441L202.01 386.224C201.995 386.105 201.966 385.794 201.946 385.533C201.927 385.272 201.895 385.061 201.876 385.063C201.857 385.065 201.635 385.188 201.381 385.337ZM209.407 385.425C209.255 385.94 209.168 386.307 209.192 386.325C209.203 386.334 209.419 386.475 209.673 386.639C209.926 386.802 210.27 387.047 210.437 387.183L210.74 387.431L211.358 387.185C211.698 387.05 211.988 386.929 212.003 386.915C212.046 386.876 211.214 386.111 210.829 385.836C210.434 385.554 209.624 385.059 209.558 385.059C209.534 385.059 209.466 385.223 209.407 385.425ZM213.846 385.378C213.846 385.405 213.733 385.551 213.596 385.704C213.425 385.895 213.223 386.041 212.952 386.171C212.576 386.352 212.551 386.376 212.435 386.661C212.361 386.844 212.247 387.01 212.145 387.085C212.052 387.152 211.476 387.411 210.865 387.66C210.151 387.951 209.693 388.169 209.584 388.271C209.292 388.541 209.291 388.948 209.581 389.231C209.884 389.528 209.967 389.516 211.507 388.96C212.271 388.683 212.998 388.4 213.12 388.331C213.332 388.212 213.362 388.161 213.712 387.323C214.126 386.334 214.203 385.913 214.044 385.531C213.968 385.35 213.846 385.255 213.846 385.378ZM197.926 389.11C197.775 389.43 197.577 389.932 197.486 390.224C197.311 390.791 197.108 391.859 197.166 391.916C197.184 391.935 197.464 391.995 197.787 392.049C198.426 392.156 198.452 392.149 198.455 391.86C198.461 391.384 198.8 390.277 199.163 389.545L199.371 389.126L198.812 388.827C198.505 388.662 198.242 388.527 198.227 388.527C198.213 388.527 198.077 388.789 197.926 389.11ZM212.599 388.807C212.316 388.927 212.078 389.031 212.071 389.038C212.063 389.046 212.176 389.306 212.322 389.616C212.651 390.316 212.844 390.921 212.96 391.618C213.042 392.116 213.058 392.154 213.163 392.131C213.225 392.117 213.491 392.07 213.752 392.026C214.013 391.982 214.248 391.934 214.273 391.918C214.33 391.883 214.221 391.187 214.065 390.58C213.847 389.736 213.356 388.62 213.194 388.599C213.15 388.593 212.882 388.686 212.599 388.807ZM196.551 392.155C196.325 392.225 194.896 393.33 194.746 393.55C194.618 393.738 194.452 394.297 194.507 394.352C194.521 394.366 194.633 394.327 194.756 394.266C195.046 394.123 195.501 394.062 195.891 394.115C196.18 394.154 196.211 394.147 196.401 393.997C196.826 393.66 196.853 393.657 198.168 393.838C198.818 393.927 199.457 394 199.588 394C200.148 394.001 200.457 393.408 200.145 392.928C199.99 392.688 199.923 392.67 197.696 392.287C197.264 392.213 196.862 392.143 196.802 392.132C196.742 392.12 196.63 392.131 196.551 392.155ZM213.277 392.371C212.502 392.512 211.805 392.643 211.727 392.662C211.215 392.792 211.044 393.471 211.432 393.836C211.634 394.026 211.946 394.027 213.282 393.845C213.941 393.755 214.538 393.696 214.61 393.713C214.681 393.73 214.865 393.838 215.019 393.951C215.286 394.149 215.31 394.157 215.571 394.115C215.922 394.06 216.467 394.134 216.737 394.275C216.853 394.336 216.959 394.373 216.974 394.359C217.023 394.31 216.877 393.764 216.766 393.584C216.55 393.235 214.925 392.068 214.713 392.109C214.698 392.112 214.052 392.23 213.277 392.371ZM192.527 393.503C192.512 393.527 192.484 394.07 192.464 394.709C192.432 395.747 192.439 395.925 192.535 396.385C192.679 397.072 192.929 397.7 193.26 398.207C193.569 398.68 194.306 399.666 194.39 399.718C194.48 399.773 194.776 399.527 194.86 399.327C194.961 399.083 194.93 399.004 194.52 398.451C193.931 397.656 193.558 396.827 193.412 395.987C193.377 395.784 193.345 395.187 193.341 394.662L193.334 393.707L193.15 393.583C192.968 393.46 192.584 393.411 192.527 393.503ZM218.425 393.509C218.152 393.624 218.139 393.685 218.113 394.895C218.093 395.848 218.07 396.103 217.97 396.466C217.804 397.071 217.385 397.898 216.964 398.454C216.541 399.013 216.498 399.157 216.675 399.42C216.785 399.583 217.079 399.793 217.118 399.736C217.125 399.726 217.318 399.47 217.546 399.167C218.86 397.422 219.117 396.609 219.016 394.515L218.967 393.486L218.75 393.474C218.631 393.468 218.485 393.484 218.425 393.509ZM197.187 394.118C197.27 394.59 197.486 395.425 197.614 395.764C197.803 396.268 198.083 396.873 198.127 396.873C198.159 396.873 198.486 396.539 198.906 396.078L199.06 395.909L198.866 395.39C198.759 395.105 198.636 394.722 198.594 394.539C198.551 394.356 198.506 394.196 198.493 394.183C198.481 394.171 198.241 394.124 197.961 394.08C197.681 394.036 197.386 393.986 197.304 393.969C197.161 393.939 197.157 393.945 197.187 394.118ZM213.509 394.07L212.929 394.18L212.867 394.476C212.803 394.783 212.691 395.128 212.501 395.605L212.391 395.881L212.87 396.357L213.349 396.834L213.536 396.461C213.789 395.958 214.038 395.216 214.17 394.573C214.23 394.281 214.279 394.021 214.279 393.995C214.279 393.931 214.197 393.939 213.509 394.07ZM195.23 394.536C194.532 394.72 194.011 395.383 194.011 396.087C194.011 396.66 194.384 397.254 194.912 397.524C195.276 397.71 195.933 397.715 196.272 397.535C197.227 397.029 197.479 395.835 196.799 395.041C196.453 394.638 195.729 394.404 195.23 394.536ZM215.374 394.588C214.62 394.857 214.188 395.598 214.332 396.377C214.428 396.895 214.715 397.27 215.221 397.538C215.547 397.711 216.215 397.707 216.555 397.53C217.526 397.025 217.771 395.821 217.063 395.034C216.643 394.566 215.949 394.383 215.374 394.588ZM200.232 395.263C200.151 395.299 199.785 395.621 199.418 395.979C199.052 396.336 198.613 396.757 198.444 396.914L198.136 397.198H197.693H197.25L196.933 397.491C196.628 397.774 196.159 398.011 195.906 398.011C195.756 398.011 195.773 398.073 195.976 398.265C196.342 398.613 196.425 398.633 197.615 398.65C198.577 398.664 198.718 398.655 198.867 398.569C199.037 398.471 200.924 396.5 201.089 396.248C201.205 396.071 201.168 395.618 201.023 395.456C200.909 395.327 200.623 395.192 200.475 395.195C200.422 395.197 200.313 395.227 200.232 395.263ZM210.724 395.27C210.338 395.438 210.192 395.983 210.444 396.31C210.761 396.721 212.526 398.534 212.67 398.597C212.793 398.651 213.102 398.665 213.896 398.652C214.873 398.635 214.975 398.625 215.185 398.512C215.406 398.394 215.688 398.136 215.688 398.052C215.688 398.029 215.64 398.011 215.582 398.011C215.328 398.011 214.86 397.774 214.555 397.491L214.238 397.198H213.8C213.773 397.198 213.748 397.198 213.725 397.198C213.617 397.199 213.538 397.2 213.462 397.183C213.247 397.137 213.062 396.955 212.351 396.258C212.296 396.204 212.238 396.147 212.177 396.087C211.244 395.173 211.115 395.1 210.724 395.27ZM211.119 397.768C210.767 398.21 209.783 398.955 209.089 399.305C208.904 399.399 208.752 399.5 208.752 399.53C208.752 399.632 209.207 400.666 209.252 400.666C209.345 400.666 210.097 400.26 210.486 400C211.003 399.653 211.63 399.134 211.97 398.771L212.234 398.488L211.781 398.033C211.532 397.782 211.315 397.577 211.3 397.577C211.284 397.577 211.203 397.663 211.119 397.768ZM199.746 398.068C199.528 398.308 199.342 398.525 199.333 398.549C199.308 398.619 200.134 399.399 200.605 399.75C201.097 400.117 201.997 400.631 202.157 400.636C202.238 400.638 202.35 400.509 202.58 400.152C202.752 399.883 202.892 399.639 202.892 399.61C202.892 399.58 202.678 399.453 202.417 399.327C201.812 399.036 201.125 398.547 200.601 398.034C200.374 397.813 200.178 397.632 200.165 397.632C200.153 397.632 199.964 397.828 199.746 398.068ZM204.474 398C204.402 398.012 204.287 398.057 204.22 398.102C204.152 398.146 203.717 398.787 203.254 399.525C202.537 400.667 202.411 400.901 202.411 401.081C202.411 401.416 202.866 403.023 203.031 403.273C203.11 403.392 203.29 403.563 203.43 403.652L203.685 403.814L203.717 403.347C203.744 402.96 203.782 402.82 203.937 402.519L204.123 402.157L204.022 401.784C203.966 401.579 203.933 401.36 203.949 401.296C203.965 401.233 204.272 400.665 204.631 400.035C205.325 398.816 205.374 398.669 205.201 398.335C205.083 398.106 204.757 397.956 204.474 398ZM207.072 398.26C206.967 398.304 206.838 398.401 206.783 398.475C206.568 398.77 206.592 398.887 207.147 400.224C207.433 400.914 207.667 401.546 207.666 401.628C207.664 401.71 207.606 401.911 207.535 402.074C207.415 402.353 207.412 402.382 207.492 402.535C207.695 402.928 207.773 403.498 207.671 403.851C207.63 403.994 207.636 404.026 207.704 404.026C207.85 404.026 208.133 403.865 208.312 403.68C208.521 403.465 209.239 401.778 209.239 401.503C209.239 401.314 208.018 398.623 207.843 398.426C207.744 398.316 207.449 398.172 207.331 398.176C207.293 398.178 207.176 398.215 207.072 398.26ZM205.716 400.11L204.929 400.127L204.591 400.668C204.406 400.965 204.254 401.23 204.254 401.256C204.254 401.338 204.522 401.373 205.419 401.407C206.182 401.435 207.199 401.37 207.282 401.286C207.295 401.274 207.194 401.001 207.058 400.68C206.827 400.136 206.801 400.097 206.657 400.095C206.572 400.093 206.149 400.1 205.716 400.11ZM205.283 401.909C204.564 402.129 204.128 402.715 204.127 403.462C204.127 404.837 205.722 405.538 206.766 404.622C207.202 404.239 207.383 403.567 207.21 402.971C207.084 402.537 206.626 402.07 206.204 401.945C205.899 401.854 205.512 401.839 205.283 401.909ZM202.723 405.042C202.644 405.124 202.553 405.264 202.52 405.352C202.44 405.564 202.447 405.568 203.458 405.968C204.549 406.399 204.968 406.49 205.852 406.489C206.676 406.488 206.899 406.445 208.118 406.049L209.03 405.754L208.994 405.581C208.943 405.338 208.831 405.18 208.638 405.081C208.479 404.998 208.445 405.003 207.845 405.192C206.999 405.458 206.516 405.544 205.861 405.543C205.175 405.542 204.521 405.411 203.743 405.117C203.04 404.852 202.913 404.843 202.723 405.042ZM202.413 391.822C202.368 391.762 202.304 391.722 202.222 391.702C202.291 391.684 202.347 391.648 202.388 391.594C202.431 391.538 202.452 391.47 202.452 391.39C202.452 391.274 202.412 391.185 202.332 391.124C202.252 391.064 202.142 391.033 202.002 391.033H201.302V392.406H202.022C202.17 392.406 202.284 392.374 202.363 392.309C202.443 392.243 202.483 392.15 202.483 392.03C202.483 391.951 202.46 391.882 202.413 391.822ZM201.9 391.568H201.733V391.375H201.9C201.938 391.375 201.967 391.383 201.985 391.4C202.004 391.415 202.014 391.44 202.014 391.473C202.014 391.506 202.004 391.53 201.985 391.545C201.967 391.561 201.938 391.568 201.9 391.568ZM202.014 392.04C201.996 392.054 201.968 392.061 201.929 392.061H201.733V391.867H201.929C202.005 391.867 202.043 391.9 202.043 391.966C202.043 392 202.033 392.024 202.014 392.04ZM203.006 392.352C203.094 392.397 203.193 392.42 203.303 392.42C203.412 392.42 203.511 392.397 203.599 392.352C203.687 392.307 203.756 392.242 203.805 392.158C203.855 392.073 203.88 391.973 203.88 391.859C203.88 391.746 203.855 391.647 203.805 391.563C203.756 391.477 203.687 391.412 203.599 391.367C203.511 391.322 203.412 391.299 203.303 391.299C203.193 391.299 203.094 391.322 203.006 391.367C202.918 391.412 202.849 391.477 202.799 391.563C202.749 391.647 202.725 391.746 202.725 391.859C202.725 391.973 202.749 392.073 202.799 392.158C202.849 392.242 202.918 392.307 203.006 392.352ZM203.403 392.001C203.376 392.032 203.343 392.047 203.303 392.047C203.261 392.047 203.227 392.032 203.2 392.001C203.174 391.969 203.161 391.921 203.161 391.859C203.161 391.797 203.175 391.751 203.202 391.72C203.229 391.687 203.263 391.671 203.303 391.671C203.343 391.671 203.376 391.687 203.403 391.72C203.431 391.751 203.444 391.797 203.444 391.859C203.444 391.921 203.431 391.969 203.403 392.001ZM204.394 392.352C204.482 392.397 204.581 392.42 204.69 392.42C204.8 392.42 204.899 392.397 204.987 392.352C205.075 392.307 205.143 392.242 205.193 392.158C205.243 392.073 205.268 391.973 205.268 391.859C205.268 391.746 205.243 391.647 205.193 391.563C205.143 391.477 205.075 391.412 204.987 391.367C204.899 391.322 204.8 391.299 204.69 391.299C204.581 391.299 204.482 391.322 204.394 391.367C204.306 391.412 204.237 391.477 204.186 391.563C204.137 391.647 204.113 391.746 204.113 391.859C204.113 391.973 204.137 392.073 204.186 392.158C204.237 392.242 204.306 392.307 204.394 392.352ZM204.791 392.001C204.764 392.032 204.73 392.047 204.69 392.047C204.649 392.047 204.615 392.032 204.588 392.001C204.562 391.969 204.549 391.921 204.549 391.859C204.549 391.797 204.562 391.751 204.59 391.72C204.617 391.687 204.65 391.671 204.69 391.671C204.73 391.671 204.764 391.687 204.791 391.72C204.818 391.751 204.832 391.797 204.832 391.859C204.832 391.921 204.818 391.969 204.791 392.001ZM205.989 391.97L206.258 392.406H206.772L206.353 391.863L206.763 391.313H206.262L205.989 391.722V390.971H205.559V392.406H205.989V391.97ZM208.73 392.406H209.158V391.033H208.633L208.338 391.857L208.036 391.033H207.508V392.406H207.939V391.722L208.15 392.406H208.519L208.73 391.722V392.406ZM210.043 392.93L210.743 391.313H210.268L210.076 391.867L209.87 391.313H209.391L209.847 392.352L209.572 392.93H210.043ZM204.024 394.741C204.065 394.67 204.085 394.591 204.085 394.504C204.085 394.361 204.039 394.247 203.949 394.161C203.86 394.076 203.731 394.033 203.563 394.033H202.962V395.406H203.392V394.97H203.563C203.674 394.97 203.769 394.949 203.846 394.908C203.925 394.866 203.984 394.811 204.024 394.741ZM203.648 394.504C203.648 394.588 203.604 394.63 203.515 394.63H203.392V394.378H203.515C203.604 394.378 203.648 394.42 203.648 394.504ZM204.807 395.406V393.971H204.376V395.406H204.807ZM205.156 394.561C205.117 394.645 205.098 394.744 205.098 394.859C205.098 394.974 205.117 395.074 205.156 395.16C205.196 395.244 205.251 395.308 205.319 395.354C205.388 395.398 205.464 395.42 205.55 395.42C205.621 395.42 205.682 395.405 205.734 395.377C205.786 395.347 205.825 395.307 205.852 395.257V395.406H206.281V394.313H205.852V394.462C205.825 394.411 205.786 394.372 205.734 394.344C205.682 394.314 205.621 394.299 205.55 394.299C205.464 394.299 205.388 394.322 205.319 394.367C205.251 394.411 205.196 394.475 205.156 394.561ZM205.808 394.724C205.837 394.756 205.852 394.801 205.852 394.859C205.852 394.917 205.837 394.963 205.808 394.995C205.778 395.027 205.74 395.043 205.693 395.043C205.647 395.043 205.609 395.027 205.579 394.995C205.549 394.963 205.534 394.917 205.534 394.859C205.534 394.801 205.549 394.756 205.579 394.724C205.609 394.691 205.647 394.675 205.693 394.675C205.74 394.675 205.778 394.691 205.808 394.724ZM206.641 394.563C206.594 394.647 206.571 394.746 206.571 394.859C206.571 394.973 206.594 395.073 206.641 395.158C206.689 395.242 206.754 395.307 206.839 395.352C206.924 395.397 207.021 395.42 207.129 395.42C207.272 395.42 207.391 395.38 207.488 395.299C207.586 395.219 207.648 395.108 207.674 394.966H207.219C207.202 395.023 207.169 395.051 207.12 395.051C207.085 395.051 207.057 395.035 207.036 395.003C207.017 394.97 207.007 394.923 207.007 394.859C207.007 394.796 207.017 394.748 207.036 394.716C207.057 394.683 207.085 394.667 207.12 394.667C207.169 394.667 207.202 394.696 207.219 394.753H207.674C207.648 394.61 207.586 394.499 207.488 394.419C207.391 394.339 207.272 394.299 207.129 394.299C207.021 394.299 206.924 394.322 206.839 394.367C206.754 394.412 206.689 394.477 206.641 394.563ZM209.019 394.935C209.022 394.908 209.024 394.879 209.024 394.85C209.024 394.737 209 394.64 208.953 394.557C208.906 394.474 208.84 394.411 208.755 394.367C208.671 394.322 208.575 394.299 208.466 394.299C208.357 394.299 208.26 394.322 208.175 394.367C208.091 394.412 208.025 394.477 207.977 394.563C207.931 394.647 207.908 394.746 207.908 394.859C207.908 394.973 207.931 395.073 207.977 395.158C208.025 395.242 208.091 395.307 208.175 395.352C208.26 395.397 208.357 395.42 208.466 395.42C208.556 395.42 208.639 395.402 208.714 395.367C208.79 395.331 208.853 395.283 208.902 395.222C208.953 395.16 208.986 395.09 209.001 395.012H208.545C208.525 395.055 208.491 395.076 208.445 395.076C208.372 395.076 208.333 395.029 208.326 394.935H209.019ZM208.553 394.665C208.576 394.683 208.588 394.711 208.588 394.747H208.332C208.345 394.673 208.39 394.636 208.466 394.636C208.501 394.636 208.53 394.646 208.553 394.665Z" fill="white"/>
</g>
<defs>
<filter id="filter0_f_408_805" x="-153.173" y="-70.1099" width="681.74" height="952.22" filterUnits="userSpaceOnUse" color-interpolation-filters="sRGB">
<feFlood flood-opacity="0" result="BackgroundImageFix"/>
<feBlend mode="normal" in="SourceGraphic" in2="BackgroundImageFix" result="shape"/>
<feGaussianBlur stdDeviation="118.734" result="effect1_foregroundBlur_408_805"/>
</filter>
<filter id="filter1_d_408_805" x="156.333" y="347.872" width="99.6473" height="105.22" filterUnits="userSpaceOnUse" color-interpolation-filters="sRGB">
<feFlood flood-opacity="0" result="BackgroundImageFix"/>
<feColorMatrix in="SourceAlpha" type="matrix" values="0 0 0 0 0 0 0 0 0 0 0 0 0 0 0 0 0 0 127 0" result="hardAlpha"/>
<feOffset dy="5.86469"/>
<feGaussianBlur stdDeviation="8.62455"/>
<feComposite in2="hardAlpha" operator="out"/>
<feColorMatrix type="matrix" values="0 0 0 0 0.0633072 0 0 0 0 0.00230903 0 0 0 0 0.0791667 0 0 0 0.6 0"/>
<feBlend mode="normal" in2="BackgroundImageFix" result="effect1_dropShadow_408_805"/>
<feBlend mode="normal" in="SourceGraphic" in2="effect1_dropShadow_408_805" result="shape"/>
</filter>
<linearGradient id="paint0_linear_408_805" x1="97.7776" y1="395.386" x2="128.745" y2="401.092" gradientUnits="userSpaceOnUse">
<stop stop-color="#E8AA20"/>
<stop offset="0.649132" stop-color="#F7DF89"/>
<stop offset="1" stop-color="#E09200"/>
</linearGradient>
<linearGradient id="paint1_linear_408_805" x1="132.924" y1="395.386" x2="168.629" y2="403.061" gradientUnits="userSpaceOnUse">
<stop stop-color="#E8AA20"/>
<stop offset="0.649132" stop-color="#F7DF89"/>
<stop offset="1" stop-color="#E09200"/>
</linearGradient>
<linearGradient id="paint2_linear_408_805" x1="243.519" y1="395.386" x2="277.349" y2="402.242" gradientUnits="userSpaceOnUse">
<stop stop-color="#E8AA20"/>
<stop offset="0.649132" stop-color="#F7DF89"/>
<stop offset="1" stop-color="#E09200"/>
</linearGradient>
<linearGradient id="paint3_linear_408_805" x1="172.748" y1="392.341" x2="233.998" y2="414.864" gradientUnits="userSpaceOnUse">
<stop stop-color="#E8AA20"/>
<stop offset="0.649132" stop-color="#F7DF89"/>
<stop offset="1" stop-color="#E09200"/>
</linearGradient>
<clipPath id="clip0_408_805">
<rect x="0.0517578" width="375" height="812" rx="30" fill="white"/>
</clipPath>
</defs>
</svg>
