<svg width="16" height="17" viewBox="0 0 16 17" fill="none" xmlns="http://www.w3.org/2000/svg">
<path d="M11.7731 15.4368C11.4197 15.4368 10.9664 15.3235 10.3997 14.9902L8.40641 13.8102C8.19974 13.6902 7.79974 13.6902 7.59974 13.8102L5.59975 14.9902C4.41975 15.6902 3.72642 15.4102 3.41309 15.1835C3.10642 14.9568 2.62642 14.3768 2.93975 13.0435L3.41309 10.9968C3.46642 10.7835 3.35975 10.4168 3.19975 10.2568L1.54642 8.60351C0.719753 7.77684 0.78642 7.07018 0.899753 6.72349C1.01309 6.37682 1.37309 5.76349 2.51975 5.57016L4.64642 5.21682C4.84642 5.18349 5.13309 4.97016 5.21975 4.79016L6.39975 2.43682C6.93307 1.36349 7.63307 1.20349 7.99974 1.20349C8.36641 1.20349 9.06641 1.36349 9.59974 2.43682L10.7731 4.78349C10.8664 4.96349 11.1531 5.17682 11.3531 5.21016L13.4797 5.56349C14.6331 5.75682 14.9931 6.37016 15.0997 6.71682C15.2064 7.06351 15.2731 7.77018 14.4531 8.59684L12.7997 10.2568C12.6397 10.4168 12.5397 10.7768 12.5864 10.9968L13.0597 13.0435C13.3664 14.3768 12.8931 14.9568 12.5864 15.1835C12.4197 15.3035 12.1531 15.4368 11.7731 15.4368Z" fill="#FF9E00"/>
</svg>
