<svg width="417" height="905" viewBox="0 0 417 905" fill="none" xmlns="http://www.w3.org/2000/svg">
<rect width="417" height="905" fill="#F5F5F5"/>
<g filter="url(#filter0_d_0_1)">
<g clip-path="url(#clip0_0_1)">
<rect x="21" y="16" width="375" height="863" rx="30" fill="#100032" shape-rendering="crispEdges"/>
<rect x="190.638" y="-174.061" width="109.681" height="718.916" transform="rotate(29.2851 190.638 -174.061)" fill="white" fill-opacity="0.05"/>
<rect x="122.129" y="-207.6" width="153.287" height="645.246" transform="rotate(29.2851 122.129 -207.6)" fill="white" fill-opacity="0.05"/>
<rect x="112.484" y="-174.856" width="116.992" height="610.738" transform="rotate(29.2851 112.484 -174.856)" fill="white" fill-opacity="0.05"/>
<rect x="101.612" y="-195.483" width="116.992" height="610.738" transform="rotate(29.2851 101.612 -195.483)" fill="white" fill-opacity="0.05"/>
<rect width="109.681" height="718.916" transform="matrix(-0.885204 -0.465203 -0.465203 0.885204 539.197 445.256)" fill="white" fill-opacity="0.05"/>
<rect width="153.287" height="645.246" transform="matrix(-0.885204 -0.465203 -0.465203 0.885204 604.632 484.455)" fill="white" fill-opacity="0.05"/>
<rect width="116.992" height="610.738" transform="matrix(-0.885204 -0.465203 -0.465203 0.885204 582.42 510.375)" fill="white" fill-opacity="0.05"/>
<rect width="116.992" height="610.738" transform="matrix(-0.885204 -0.465203 -0.465203 0.885204 605.641 508.262)" fill="white" fill-opacity="0.05"/>
<path d="M235.191 500.885L208.545 508.433L208.52 458.007L227.624 454.178L235.191 500.885Z" fill="white" fill-opacity="0.5"/>
<path d="M235.192 500.885L261.233 507.322L245.927 457.592L227.624 454.178L235.192 500.885Z" fill="white" fill-opacity="0.1"/>
<path d="M181.888 500.905L208.545 508.433L208.52 458.007L189.411 454.188L181.888 500.905Z" fill="white" fill-opacity="0.1"/>
<path opacity="0.5" d="M235.192 500.885L261.233 507.322L245.927 457.592L227.624 454.178L235.192 500.885Z" fill="white" fill-opacity="0.2"/>
<path opacity="0.5" d="M181.888 500.905L208.545 508.433L208.52 458.007L189.411 454.188L181.888 500.905Z" fill="white" fill-opacity="0.2"/>
<path d="M181.888 500.335L155.767 507.882L171.167 457.447L189.411 453.618L181.888 500.335Z" fill="white" fill-opacity="0.5"/>
<path d="M226.586 443.635C226.586 453.439 208.834 479.309 208.834 479.309C208.834 479.309 191.083 453.439 191.083 443.635C191.083 433.832 199.031 425.884 208.834 425.884C218.638 425.884 226.586 433.832 226.586 443.635Z" fill="#FF9E00"/>
<path d="M214.734 448.753C217.993 445.495 217.993 440.211 214.734 436.953C211.476 433.694 206.193 433.694 202.934 436.953C199.676 440.211 199.676 445.495 202.934 448.753C206.193 452.012 211.476 452.012 214.734 448.753Z" fill="white"/>
<path d="M194.125 445.195C194.125 436.678 201.03 429.774 209.546 429.774C214.525 429.774 218.951 432.133 221.771 435.794C219.108 431.172 214.117 428.059 208.399 428.059C199.882 428.059 192.978 434.963 192.978 443.48C192.978 447.018 194.171 450.278 196.175 452.88C194.871 450.618 194.125 447.993 194.125 445.195Z" fill="#DC8A04"/>
<path d="M204.648 472.519C207.067 476.572 208.834 479.309 208.834 479.309C208.834 479.309 226.586 453.439 226.586 443.636C226.586 443.121 226.559 442.612 226.517 442.109C225.816 444.833 224.826 447.485 223.609 450.016C220.249 457.011 215.28 461.492 209.988 467.166C208.282 468.995 206.506 470.804 204.648 472.519Z" fill="#DC8A04"/>
<path fill-rule="evenodd" clip-rule="evenodd" d="M183.65 386.567V453.097H191.067C189.361 449.063 188.248 445.422 188.248 442.789C188.248 431.512 197.39 422.369 208.668 422.369C219.945 422.369 229.088 431.512 229.088 442.789C229.088 444.905 228.369 447.671 227.201 450.77C227.281 450.734 227.361 450.697 227.44 450.66C230.927 449.036 233.612 446.805 235.496 443.968C237.402 441.131 238.355 437.894 238.355 434.255C238.355 431.115 237.662 428.386 236.276 426.069C234.89 423.73 233.027 421.9 230.688 420.579C228.349 419.236 225.751 418.511 222.892 418.403V417.753C225.469 417.233 227.721 416.302 229.649 414.959C231.576 413.595 233.071 411.906 234.132 409.892C235.215 407.877 235.756 405.647 235.756 403.2C235.756 399.821 234.868 396.887 233.092 394.396C231.338 391.906 228.728 389.978 225.263 388.614C221.82 387.25 217.564 386.567 212.497 386.567H183.65ZM209.118 413.465H199.855V400.731H209.378C211.631 400.731 213.493 401.283 214.966 402.388C216.438 403.47 217.175 405.04 217.175 407.098C217.175 408.462 216.828 409.621 216.135 410.574C215.464 411.505 214.522 412.22 213.309 412.718C212.096 413.216 210.699 413.465 209.118 413.465Z" fill="white"/>
</g>
<rect x="21" y="16" width="375" height="863" rx="30" stroke="#3A57E3" stroke-opacity="0.3" shape-rendering="crispEdges"/>
</g>
<defs>
<filter id="filter0_d_0_1" x="0.5" y="0.5" width="416" height="904" filterUnits="userSpaceOnUse" color-interpolation-filters="sRGB">
<feFlood flood-opacity="0" result="BackgroundImageFix"/>
<feColorMatrix in="SourceAlpha" type="matrix" values="0 0 0 0 0 0 0 0 0 0 0 0 0 0 0 0 0 0 127 0" result="hardAlpha"/>
<feOffset dy="5"/>
<feGaussianBlur stdDeviation="10"/>
<feComposite in2="hardAlpha" operator="out"/>
<feColorMatrix type="matrix" values="0 0 0 0 0.278431 0 0 0 0 0.4 0 0 0 0 0.976471 0 0 0 0.05 0"/>
<feBlend mode="normal" in2="BackgroundImageFix" result="effect1_dropShadow_0_1"/>
<feBlend mode="normal" in="SourceGraphic" in2="effect1_dropShadow_0_1" result="shape"/>
</filter>
<clipPath id="clip0_0_1">
<rect x="21" y="16" width="375" height="863" rx="30" fill="white"/>
</clipPath>
</defs>
</svg>
